# Blender 5.1.0
# www.blender.org
mtllib kamyk4.mtl
o Sphere
v -0.220869 1.280790 12.778751
v -0.220869 0.911255 13.334321
v -0.273443 0.911255 13.507635
v -0.311504 2.049396 13.698977
v -0.295527 1.665093 13.709652
v -0.311504 1.280790 13.698977
v -0.473715 2.418931 13.807363
v -0.433477 2.049396 13.847601
v -0.419890 1.665093 13.861188
v -0.964785 0.570690 13.969574
v -1.126997 0.570690 13.985551
v -1.307236 0.911255 14.060208
v -1.289208 0.570690 13.969574
v -1.502327 1.280790 14.060208
v -1.480550 0.911255 14.007634
v -1.671892 2.049396 13.969574
v -1.682567 1.665093 13.985550
v -1.671892 1.280790 13.969574
v -1.640276 0.911255 13.922258
v -1.780278 2.418931 13.807363
v -1.820516 2.049396 13.847601
v -1.834103 1.665093 13.861187
v -1.820516 1.280790 13.847601
v -1.895174 2.418931 13.667361
v -1.942489 2.049396 13.698977
v -1.958466 1.665093 13.709651
v -1.942489 1.280790 13.698977
v -2.033124 1.280790 13.529411
v -1.588936 2.759496 12.462740
v -1.682566 1.665093 12.322613
v -1.671891 1.280790 12.338589
v -1.640276 0.911255 12.385904
v -1.502326 1.280790 12.247954
v -1.480550 0.911255 12.300529
v -1.307236 0.911255 12.247954
v -1.126997 0.911255 12.230203
v -1.584495 2.778681 12.469385
v -1.447644 2.735818 12.379969
v -1.526493 2.759496 12.429364
v -0.971876 0.483442 13.933924
v -1.126997 0.483368 13.949171
v -1.282117 0.483442 13.933924
v -0.331257 2.203672 13.685778
v -0.477091 2.436526 13.803987
v -0.466072 2.418931 13.798049
v -0.623721 2.670651 13.842536
v -1.449545 0.612671 13.932783
v -1.408155 0.570690 13.933492
v -1.621568 0.787151 13.894259
v -1.784791 0.952707 13.811876
v -1.743924 0.911255 13.837197
v -1.917749 1.087563 13.682445
v -2.020454 1.191736 13.524163
v -1.784791 0.952707 12.496286
v -1.621567 0.787151 12.413903
v -1.743923 0.911255 12.470965
v -1.449545 0.612671 12.375380
v -1.408155 0.570690 12.374671
v -1.322194 0.483501 13.921792
v -0.944491 0.986667 12.236565
v -0.760827 1.125337 12.270070
v -0.586569 1.228572 12.345274
v -0.223498 1.262310 12.779840
v -0.223698 0.900626 13.333758
v -0.219733 0.911255 13.322783
v -0.322949 0.713777 13.487129
v -0.416779 0.570690 13.580706
v -1.292125 0.625792 12.323925
v -1.126997 0.814087 12.256568
v -1.028256 0.911255 12.239927
v -0.451805 0.524069 13.605230
v -0.485226 0.484959 13.620394
v -1.334057 0.570690 12.352194
v -1.329063 0.490468 12.481800
v -1.364012 0.525916 12.380679
v -0.523171 1.665093 13.945949
v -0.561627 2.418931 13.879510
v -0.508216 2.049396 13.908938
v -1.126997 0.891447 14.072586
v -1.310591 1.022913 14.077072
v -1.165084 0.911255 14.074209
v -1.503772 1.356315 14.063697
v -1.476037 1.280790 14.068183
v -1.599770 2.049396 14.008123
v -1.577433 1.665093 14.041745
v -1.551907 2.418931 13.969493
v -1.550568 2.422854 13.969007
v -0.640178 2.642375 13.865919
v -0.586645 1.280790 12.336160
v -0.219474 1.310986 12.778173
v -0.743120 2.861297 12.641733
v -0.582566 1.275361 12.339283
v -0.237594 1.280790 12.747462
v -0.245611 1.272047 12.735305
v -0.541162 1.246225 12.379039
v -2.036879 1.362078 13.530967
v -2.026407 1.665093 13.582542
v -1.998486 2.049396 13.594214
v -1.956998 2.418931 13.551697
v -2.038345 1.280790 13.512200
v -1.639290 2.425475 12.387381
v -1.682157 1.679802 12.323224
v -1.645414 2.759496 12.509090
v -1.683358 1.665093 12.323262
v -1.732092 1.280790 12.387995
v -1.639271 2.418931 12.385366
v -1.653798 2.049396 12.328918
v -1.649934 2.813334 12.541677
v -1.786454 0.967980 12.494623
v -1.788895 0.956869 12.500281
v -2.035913 1.207416 13.481479
v -0.750826 1.280790 12.248404
v -1.477116 2.452002 12.308819
v -1.505932 1.469232 12.239250
v -1.549800 1.665093 12.251648
v -1.312948 1.101394 12.219237
v -1.436923 1.280790 12.228114
v -1.126997 0.995042 12.217299
v -1.310826 2.712811 12.331972
v -0.942534 1.051818 12.226725
v -0.751783 1.278805 12.248237
v -0.959160 2.717969 12.342732
v -0.700687 1.481173 12.263897
v -1.490968 2.418931 12.306097
v -1.558999 2.049396 12.278247
v -0.187139 1.280790 12.889945
v -0.213012 0.963277 13.335884
v -0.236752 1.169154 13.522833
v -0.266965 1.665093 13.656216
v -0.280244 2.049396 13.640493
v -0.245475 1.280790 13.575446
v -0.281160 2.123681 13.618057
v -0.207005 0.958504 13.267433
v -0.187615 1.192378 12.935052
v -0.224795 2.033683 12.995939
v -0.190062 1.440403 12.852951
v -1.640545 2.415788 13.922662
v -1.777096 2.435513 13.804181
v -1.664631 2.418931 13.902271
v -1.879361 2.489018 13.656796
v -0.851662 3.034606 13.497462
v -1.603705 2.418931 13.941807
v -1.551880 2.423838 13.968005
v -0.928904 3.157940 13.260568
v -1.746104 3.010658 12.953320
v -1.934718 2.560864 13.512074
v -0.322294 1.196515 13.691767
v -0.339714 0.911255 13.631618
v -0.422955 1.578407 13.858123
v -0.324145 1.280790 13.714380
v -0.955633 0.743581 14.015586
v -0.942717 0.570690 13.962880
v -0.902359 0.483544 13.912880
v -0.492971 0.484913 13.629802
v -0.432102 0.570690 13.609373
v -0.442305 0.551493 13.611578
v -0.960275 0.894939 14.057113
v -0.526653 1.648925 13.947764
vn 0.0946 -0.2607 -0.9608
vn 0.0295 0.0697 -0.9971
vn 0.8808 -0.0497 -0.4708
vn 0.9957 0.0379 0.0847
vn 0.9837 -0.1515 0.0969
vn 0.9608 -0.2607 0.0946
vn 0.9238 -0.2607 0.2802
vn 0.8808 -0.0497 0.4708
vn 0.8717 0.1515 0.4660
vn 0.7463 0.2607 0.6124
vn 0.7721 0.0497 0.6336
vn 0.5573 -0.2038 0.8049
vn 0.7641 -0.1515 0.6270
vn 0.2682 -0.3830 0.8840
vn 0.0905 -0.3830 0.9193
vn -0.0969 -0.1515 0.9837
vn -0.0906 -0.3830 0.9193
vn -0.2899 -0.0497 0.9558
vn -0.4551 -0.2607 0.8514
vn -0.4708 0.0497 0.8808
vn -0.4660 -0.1515 0.8717
vn -0.6336 0.0497 0.7721
vn -0.6336 -0.0497 0.7721
vn -0.6125 -0.2607 0.7463
vn -0.7641 0.1515 0.6271
vn -0.7721 0.0497 0.6336
vn -0.7721 -0.0497 0.6336
vn -0.7641 -0.1515 0.6271
vn -0.8717 -0.1515 0.4660
vn -0.7640 -0.1515 -0.6272
vn -0.6125 0.2607 -0.7463
vn -0.6339 0.0497 -0.7718
vn -0.6336 -0.0497 -0.7721
vn -0.6125 -0.2607 -0.7463
vn -0.4660 -0.1515 -0.8717
vn -0.4551 -0.2607 -0.8514
vn -0.2682 -0.3830 -0.8840
vn -0.0946 -0.2607 -0.9608
vn -0.2803 0.2607 -0.9238
vn -0.4354 0.3830 -0.8147
vn -0.5860 0.3830 -0.7141
vn -0.6125 0.2607 0.7463
vn -0.3367 0.7858 0.5189
vn 0.7641 0.1515 0.6271
vn 0.8808 0.0497 0.4708
vn -0.6271 -0.1515 0.7641
vn -0.2681 -0.3830 0.8840
vn -0.2802 -0.2607 0.9239
vn -0.0000 -1.0000 -0.0048
vn -0.2802 -0.2607 -0.9239
vn -0.4708 -0.0497 0.8808
vn -0.2869 -0.1515 0.9459
vn -0.0946 -0.2607 0.9608
vn 0.2802 -0.2607 0.9239
vn 0.6271 0.1515 0.7641
vn 0.6125 0.2607 0.7463
vn 0.6336 0.0497 0.7721
vn 0.6336 -0.0497 0.7721
vn 0.8717 -0.1515 -0.4660
vn 0.6271 -0.1515 -0.7641
vn 0.4708 -0.0497 -0.8808
vn -0.7121 -0.7021 -0.0000
vn -0.6271 -0.1515 -0.7641
vn -0.9459 -0.1515 0.2869
vn -0.8717 0.1515 0.4660
vn -0.8808 0.0497 0.4708
vn -0.8808 -0.0497 0.4708
vn -0.9558 -0.0497 0.2899
vn -0.4660 0.1515 -0.8717
vn 0.7476 0.1967 -0.6344
vn 0.2869 -0.1515 -0.9459
vn -0.0000 0.9017 -0.4323
vn 0.0969 -0.1515 -0.9837
vn -0.2869 -0.1515 -0.9459
vn -0.0969 -0.1515 -0.9837
vn -0.4708 0.0497 -0.8808
vn -0.4708 -0.0497 -0.8808
vn -0.2899 -0.0497 -0.9558
vn -0.4551 0.2607 -0.8514
vn 0.4660 -0.1515 -0.8717
vn 0.5907 -0.6757 -0.4410
vn 0.9459 -0.1515 0.2869
vn 0.9459 -0.1515 -0.2869
vn 0.9558 -0.0497 -0.2899
vn -0.9619 0.0778 -0.2620
vn -0.4551 0.2606 0.8514
vn 0.8475 0.5308 -0.0000
vn -0.0748 0.6610 0.7466
vn -0.8514 0.2607 0.4551
vn -0.7463 0.2607 0.6125
vn -0.6271 0.1515 0.7641
vn -0.4659 0.1515 0.8717
vn 0.0901 0.0920 0.9917
vn 0.8147 -0.3830 0.4354
vn 0.7140 -0.3830 0.5860
vn 0.0946 -0.2607 0.9608
vn 0.7720 -0.0497 0.6336
vn 0.8514 -0.2607 0.4551
vn 0.8717 -0.1515 0.4660
vt 0.750000 0.357168
vt 0.750000 0.375000
vt 0.732880 0.375000
vt 0.687500 0.437164
vt 0.718750 0.398774
vt 0.750000 0.389171
vt 0.781250 0.407158
vt 0.801391 0.437500
vt 0.812500 0.468147
vt 0.819752 0.500000
vt 0.822944 0.562500
vt 0.814538 0.625000
vt 0.812500 0.631069
vt 0.785056 0.678932
vt 0.712872 0.680111
vt 0.678811 0.470089
vt 0.687345 0.437500
vt 0.568266 0.437500
vt 0.562500 0.442411
vt 0.562500 0.437500
vt 0.543614 0.437500
vt 0.549605 0.463458
vt 0.526094 0.561912
vt 0.419992 0.575064
vt 0.417028 0.562500
vt 0.415909 0.500000
vt 0.429016 0.437500
vt 0.437500 0.418619
vt 0.468750 0.383799
vt 0.480347 0.382991
vt 0.536419 0.422547
vt 0.468750 0.375000
vt 0.470750 0.375000
vt 0.468750 0.373049
vt 0.437500 0.375000
vt 0.437500 0.338759
vt 0.406250 0.500000
vt 0.406250 0.437500
vt 0.406250 0.588593
vt 0.406250 0.562500
vt 0.377079 0.625000
vt 0.375000 0.628229
vt 0.375000 0.625000
vt 0.375000 0.562500
vt 0.375000 0.500000
vt 0.375000 0.485902
vt 0.353076 0.497371
vt 0.279043 0.372006
vt 0.281250 0.344229
vt 0.285671 0.312500
vt 0.295811 0.294254
vt 0.397531 0.294541
vt 0.406250 0.308481
vt 0.407695 0.312500
vt 0.413243 0.375000
vt 0.406250 0.423247
vt 0.403011 0.437500
vt 0.281250 0.312500
vt 0.281250 0.294232
vt 0.250000 0.312500
vt 0.250000 0.294217
vt 0.243396 0.375000
vt 0.218750 0.393885
vt 0.218750 0.375000
vt 0.218750 0.312500
vt 0.218750 0.294232
vt 0.191965 0.437500
vt 0.187500 0.449783
vt 0.187500 0.437500
vt 0.187500 0.320204
vt 0.187500 0.375000
vt 0.156250 0.375000
vt 0.156250 0.352225
vt 0.175253 0.500000
vt 0.169542 0.562500
vt 0.156250 0.562500
vt 0.156250 0.500000
vt 0.156250 0.437500
vt 0.125000 0.562500
vt 0.125000 0.500000
vt 0.125000 0.437500
vt 0.133115 0.375000
vt 0.125000 0.625000
vt 0.093750 0.625000
vt 0.093750 0.562500
vt 0.093750 0.500000
vt 0.093750 0.437500
vt 0.125000 0.382011
vt 0.093750 0.404819
vt 0.062500 0.437500
vt 0.062500 0.422438
vt 0.875965 0.382715
vt 0.875000 0.384594
vt 0.875000 0.382011
vt 0.843750 0.626201
vt 0.857758 0.687500
vt 0.843750 0.687500
vt 0.843913 0.500000
vt 0.843750 0.502392
vt 0.843750 0.500000
vt 0.856408 0.437500
vt 0.843750 0.437500
vt 0.843750 0.352225
vt 0.866885 0.375000
vt 0.843750 0.375000
vt 0.812500 0.437500
vt 0.812500 0.375000
vt 0.812500 0.320204
vt 0.797186 0.303125
vt 0.805081 0.312500
vt 0.790236 0.312500
vt 0.781250 0.322612
vt 0.781250 0.375000
vt 0.812500 0.683155
vt 0.843750 0.691517
vt 0.830176 0.687500
vt 0.862694 0.698772
vt 0.150814 0.625000
vt 0.125000 0.628043
vt 0.173400 0.625901
vt 0.319756 0.750219
vt 0.338917 0.776711
vt 0.864859 0.741797
vt 0.066252 0.651047
vt 0.093750 0.637862
vt 0.156250 0.624468
vt 0.163405 0.625000
vt 0.194919 0.312500
vt 0.210355 0.294245
vt 0.754574 0.295704
vt 0.399973 0.294550
vt 0.250000 0.371365
vt 0.355377 0.625000
vt 0.359285 0.562500
vt 0.350680 0.671195
vt 0.345541 0.666006
vt 0.353701 0.500000
vt 0.562500 0.434374
vt 0.570602 0.436021
vt 0.656250 0.428668
vt 0.656250 0.436582
vt 0.647020 0.431654
vt 0.657087 0.437500
vt 0.055066 0.425090
vt 0.059577 0.437500
vt 0.071121 0.625000
vt 0.074443 0.562500
vt 0.070775 0.500000
vt 0.062500 0.450720
vt 0.840416 0.562500
vt 0.843553 0.625000
vt 0.586528 0.710146
vt 0.718750 0.387755
vt 0.687500 0.411208
vt 0.413927 0.312500
vt 0.406250 0.302739
vt 0.301540 0.741797
vt 0.173685 0.625720
vt 0.173539 0.625000
s 1
f 69/1/1 36/2/1 70/3/1
f 121/4/2 120/5/2 118/6/2 116/7/2 117/8/2 114/9/2 115/10/2 125/11/2 124/12/2 113/13/2 119/14/2 122/15/2 123/16/2 112/17/2
f 93/18/3 90/19/3 1/20/3
f 126/21/4 136/22/4 135/23/4 132/24/4 130/25/4 129/26/4 131/27/4 128/28/4 127/29/4 133/30/4 134/31/4
f 133/30/5 127/29/5 2/32/5 65/33/5
f 64/34/6 65/33/6 2/32/6
f 64/34/7 2/32/7 3/35/7 66/36/7
f 131/27/8 129/26/8 5/37/8 6/38/8
f 132/24/9 43/39/9 4/40/9 130/25/9
f 45/41/10 44/42/10 7/43/10
f 5/37/11 4/40/11 8/44/11 9/45/11
f 149/46/12 158/47/12 157/48/12 151/49/12 152/50/12 153/51/12 154/52/12 156/53/12 155/54/12 148/55/12 147/56/12 150/57/12
f 147/56/13 6/38/13 150/57/13
f 153/51/14 152/50/14 10/58/14 40/59/14
f 40/59/15 10/58/15 11/60/15 41/61/15
f 81/62/16 80/63/16 12/64/16
f 41/61/17 11/60/17 13/65/17 42/66/17
f 83/67/18 82/68/18 14/69/18
f 47/70/19 15/71/19 19/72/19 49/73/19
f 85/74/20 84/75/20 16/76/20 17/77/20
f 15/71/21 14/69/21 18/78/21 19/72/21
f 17/77/22 16/76/22 21/79/22 22/80/22
f 18/78/23 17/77/23 22/80/23 23/81/23
f 49/73/24 19/72/24 51/82/24
f 21/79/25 20/83/25 24/84/25 25/85/25
f 22/80/26 21/79/26 25/85/26 26/86/26
f 23/81/27 22/80/27 26/86/27 27/87/27
f 50/88/28 23/81/28 27/87/28 52/89/28
f 52/89/29 27/87/29 28/90/29 53/91/29
f 110/92/30 109/93/30 54/94/30
f 101/95/31 103/96/31 29/97/31
f 104/98/32 102/99/32 30/100/32
f 105/101/33 104/98/33 30/100/33 31/102/33
f 55/103/34 56/104/34 32/105/34
f 32/105/35 31/102/35 33/106/35 34/107/35
f 55/103/36 32/105/36 34/107/36 57/108/36
f 75/109/37 58/110/37 73/111/37
f 68/112/38 35/113/38 36/2/38 69/1/38
f 113/13/39 38/114/39 119/14/39
f 29/97/40 37/115/40 39/116/40
f 103/96/41 108/117/41 37/115/41 29/97/41
f 139/118/42 138/119/42 20/83/42
f 143/120/43 141/121/43 144/122/43 145/123/43 146/124/43 140/125/43 138/119/43 139/118/43 137/126/43 142/127/43
f 4/40/44 43/39/44 45/41/44 7/43/44 8/44/44
f 129/26/45 130/25/45 4/40/45 5/37/45
f 19/72/46 18/78/46 23/81/46 50/88/46 51/82/46
f 42/66/47 13/65/47 48/128/47 59/129/47
f 13/65/48 12/64/48 15/71/48 47/70/48 48/128/48
f 154/52/49 153/51/49 40/59/49 41/61/49 42/66/49 59/129/49 74/130/49 72/131/49
f 57/108/50 34/107/50 35/113/50 68/112/50 73/111/50 58/110/50
f 14/69/51 82/68/51 85/74/51 17/77/51 18/78/51
f 12/64/52 80/63/52 83/67/52 14/69/52 15/71/52
f 11/60/53 79/132/53 81/62/53 12/64/53 13/65/53
f 152/50/54 151/49/54 10/58/54
f 8/44/55 7/43/55 77/133/55 78/134/55
f 7/43/56 44/42/56 46/135/56 88/136/56 77/133/56
f 9/45/57 8/44/57 78/134/57 76/137/57
f 149/46/58 9/45/58 76/137/58 158/47/58
f 63/138/59 94/139/59 93/18/59 1/20/59
f 62/140/60 92/141/60 95/142/60
f 112/17/61 123/16/61 89/143/61
f 55/103/62 57/108/62 58/110/62 75/109/62 74/130/62 59/129/62 48/128/62 47/70/62 49/73/62 51/82/62 50/88/62 52/89/62 53/91/62 111/144/62 110/92/62 54/94/62 56/104/62
f 54/94/63 109/93/63 105/101/63 31/102/63 32/105/63 56/104/63
f 53/91/64 28/90/64 100/145/64 111/144/64
f 25/85/65 24/84/65 99/146/65 98/147/65
f 26/86/66 25/85/66 98/147/66 97/148/66
f 27/87/67 26/86/67 97/148/67 96/149/67 28/90/67
f 28/90/68 96/149/68 100/145/68
f 107/150/69 106/151/69 124/12/69 125/11/69
f 135/23/70 136/22/70 90/19/70 93/18/70 94/139/70 95/142/70 92/141/70 89/143/70 123/16/70 122/15/70 91/152/70
f 60/153/71 120/5/71 121/4/71 61/154/71
f 145/123/72 144/122/72 91/152/72 122/15/72 119/14/72 38/114/72 39/116/72 37/115/72 108/117/72
f 36/2/73 118/6/73 120/5/73 60/153/73 70/3/73
f 34/107/74 33/106/74 117/8/74 116/7/74 35/113/74
f 35/113/75 116/7/75 118/6/75 36/2/75
f 30/100/76 102/99/76 107/150/76 125/11/76 115/10/76
f 31/102/77 30/100/77 115/10/77 114/9/77 33/106/77
f 33/106/78 114/9/78 117/8/78
f 101/95/79 29/97/79 39/116/79 38/114/79 113/13/79 124/12/79 106/151/79
f 61/154/80 121/4/80 112/17/80 89/143/80 92/141/80 62/140/80
f 74/130/81 75/109/81 73/111/81 68/112/81 69/1/81 70/3/81 60/153/81 61/154/81 62/140/81 95/142/81 94/139/81 63/138/81 134/31/81 133/30/81 65/33/81 64/34/81 66/36/81 67/155/81 71/156/81 72/131/81
f 2/32/82 127/29/82 128/28/82 3/35/82
f 63/138/83 1/20/83 126/21/83 134/31/83
f 1/20/84 90/19/84 136/22/84 126/21/84
f 97/148/85 98/147/85 99/146/85 146/124/85 145/157/85 108/117/85 103/96/85 101/95/85 106/151/85 107/150/85 102/99/85 104/98/85 105/101/85 109/93/85 110/92/85 111/144/85 100/145/85 96/149/85
f 87/158/86 143/120/86 142/127/86 86/159/86
f 135/23/87 91/152/87 144/122/87 141/121/87 46/135/87 44/42/87 45/41/87 43/39/87 132/24/87
f 46/135/88 141/121/88 143/120/88 87/158/88 88/136/88
f 24/84/89 140/125/89 146/124/89 99/146/89
f 20/83/90 138/119/90 140/125/90 24/84/90
f 16/76/91 137/126/91 139/118/91 20/83/91 21/79/91
f 84/75/92 86/159/92 142/127/92 137/126/92 16/76/92
f 88/136/93 87/158/93 86/159/93 84/75/93 85/74/93 82/68/93 83/67/93 80/63/93 81/62/93 79/132/93 157/48/93 158/47/93 76/137/93 78/134/93 77/133/93
f 71/156/94 67/155/94 155/54/94 156/53/94
f 71/156/95 156/53/95 154/52/95 72/131/95
f 10/58/96 151/49/96 157/48/96 79/132/96 11/60/96
f 6/38/97 5/37/97 9/45/97 149/46/97 150/57/97
f 66/36/98 3/35/98 148/55/98 155/54/98 67/155/98
f 3/35/99 128/28/99 131/27/99 6/38/99 147/56/99 148/55/99
