# Blender 5.1.0
# www.blender.org
mtllib kamyk3.mtl
o Sphere.005
v 4.537091 -0.133687 0.567237
v 4.966217 0.987382 0.753937
v 4.992648 1.046038 0.714199
v 5.211414 1.051326 0.590640
v 5.001573 1.107037 0.672874
v 4.992648 1.168037 0.631548
v 4.966217 1.226692 0.591810
v 4.318326 1.521122 -0.310301
v 4.340207 1.551297 -0.106283
v 3.547287 0.752458 0.434912
v 3.695332 0.863638 0.556332
v 4.537091 0.025903 0.702674
v 3.498832 0.700059 0.371540
v 4.537091 -0.217952 0.464228
v 4.638914 0.747197 0.883815
v 4.725636 0.793129 0.869409
v 4.892249 0.952915 0.789403
v 4.921574 1.007111 0.756251
v 4.941021 1.060882 0.721223
v 4.951045 1.114650 0.684111
v 4.951578 1.168847 0.644587
v 4.942016 1.223891 0.602208
v 3.742950 0.889804 0.581225
v 4.537091 0.707014 0.890674
v 3.940932 0.361576 -0.782321
v 4.390095 -0.123941 0.560634
v 4.374446 -0.213493 0.449188
v 3.966738 -0.202717 0.156272
v 3.674940 0.037415 0.205499
v 4.316713 1.513045 -0.333976
v 4.244589 1.506064 -0.300100
v 3.941430 0.670101 -0.835861
v 3.904016 0.651045 -0.831265
v 4.537091 1.562520 -0.078742
v 4.511474 1.562653 -0.113976
v 4.429307 1.528480 -0.315286
v 4.421307 1.497954 -0.404299
v 4.563223 0.207368 0.804196
v 4.981685 0.978623 0.750298
v 4.945530 0.961329 0.771587
v 5.080252 1.010594 0.687143
v 5.252887 1.034420 0.565686
v 5.209498 1.038227 0.599514
v 5.390044 1.012560 0.455440
v 4.624897 0.031724 0.698730
v 4.620717 0.602938 0.894412
v 4.656219 0.665080 0.888730
v 4.732111 0.778115 0.869908
v 4.911561 0.940729 0.790122
v 4.852909 0.899079 0.820076
v 4.770099 0.823800 0.856814
v 5.407320 1.002961 0.439246
v 4.849039 0.637632 -0.829236
v 4.449071 0.980042 -0.855021
v 4.499446 1.409387 -0.521818
v 5.090069 1.177973 -0.292241
v 4.619910 -0.220255 0.450980
v 4.655900 -0.125810 0.561900
v 5.356790 0.581957 0.335234
v 4.693615 -0.055439 0.617805
v 4.236039 1.530026 -0.091872
v 3.691796 0.887806 0.539958
v 3.540815 0.796693 0.404944
v 3.496595 0.778643 0.334617
v 3.734455 0.919242 0.557812
v 3.653716 1.096251 -0.319041
v 4.132187 1.486868 -0.254301
v 4.556701 0.206936 0.804489
v 3.577940 0.684435 0.480995
v 3.710547 0.829874 0.579206
v 4.537091 0.173086 0.786772
v 3.519539 0.516404 0.410833
v 4.537091 0.602239 0.897836
v 4.469300 0.688519 0.889200
v 3.769473 0.854928 0.612605
v 4.420527 0.033631 0.697438
v 3.582379 0.247126 0.369848
v 4.344327 -0.012305 0.650743
v 4.540147 0.597596 0.898030
v 4.576125 0.449497 0.876136
v 4.562939 0.246212 0.817503
v 5.182659 1.142045 0.538389
v 5.200080 1.128798 0.538154
v 5.389714 1.014813 0.453914
v 5.081787 1.225706 0.520957
v 5.011350 1.292240 0.486853
v 5.405899 1.009121 0.435817
v 5.264809 1.239047 0.106272
v 4.996514 1.290304 0.498366
v 4.940224 1.259428 0.569633
v 4.537091 1.559074 -0.010308
v 4.361368 1.545332 0.039138
v 4.929530 1.257549 0.574825
v 4.601208 1.554909 -0.009130
v 4.244772 1.427928 0.298661
v 4.291682 1.528802 0.081945
v 4.963051 1.437590 0.193932
v 5.006817 1.297376 0.482347
v 4.414690 -0.112264 -0.716454
v 4.450752 -0.217229 -0.591808
v 4.840668 0.329733 -0.807819
v 4.854458 0.341685 -0.808585
v 5.077187 -0.038654 -0.287871
v 4.896643 -0.228975 -0.246370
vn 0.2001 0.3706 0.9070
vn 0.3749 0.2972 0.8781
vn 0.2490 0.4638 0.8502
vn 0.5864 0.3938 0.7079
vn 0.2593 0.5154 0.8168
vn 0.2593 0.5674 0.7815
vn 0.5832 0.7619 0.2819
vn 0.2490 0.6176 0.7460
vn 0.0506 0.9012 0.4304
vn 0.0638 0.9967 0.0502
vn -0.0717 0.9878 -0.1384
vn -0.5864 0.3938 0.7079
vn -0.7306 0.3065 0.6102
vn -0.4470 -0.6656 0.5976
vn -0.4044 -0.2291 0.8854
vn 0.4815 -0.5968 -0.6419
vn -0.0403 0.0681 0.9969
vn -0.0769 -0.6451 0.7602
vn -0.8516 0.2029 0.4834
vn -0.0795 -0.7716 0.6312
vn -0.0717 -0.4948 0.8660
vn -0.0340 -0.1708 -0.9847
vn -0.2305 0.9256 -0.3001
vn -0.0769 0.9452 -0.3172
vn 0.4772 0.5032 -0.7205
vn -0.0638 0.9967 0.0502
vn 0.1954 0.1166 0.9738
vn 0.1196 0.0844 0.9892
vn 0.0533 -0.1334 0.9896
vn 0.4273 0.4634 0.7763
vn 0.2290 0.4148 0.8806
vn 0.4094 0.3780 0.8303
vn 0.0638 -0.3230 0.9443
vn 0.0717 -0.4948 0.8660
vn 0.4519 0.8306 -0.3255
vn 0.0769 -0.6451 0.7602
vn -0.0275 -0.9996 0.0016
vn 0.0795 -0.7716 0.6312
vn -0.3886 0.5929 -0.7053
vn -0.2146 0.9693 -0.1203
vn -0.1906 0.9793 0.0679
vn 0.5793 -0.2604 0.7724
vn -0.1758 0.5812 0.7945
vn 0.0403 0.0681 0.9969
vn -0.9357 -0.1715 -0.3082
vn -0.5602 0.2766 0.7808
vn -0.6954 0.1611 0.7003
vn -0.8076 0.0349 0.5887
vn 0.3259 0.7695 0.5493
vn 0.7306 0.4530 0.5109
vn 0.5864 0.5114 0.6282
vn 0.4273 0.5491 0.7183
vn 0.4094 0.6310 0.6590
vn -0.6353 0.7436 0.2086
vn 0.2290 0.6640 0.7118
vn 0.3749 0.7053 0.6017
vn 0.7245 -0.6229 0.2953
vn 0.9164 -0.0111 -0.4001
vn 0.0048 -0.0695 -0.9976
vn -0.6234 -0.6776 -0.3902
vt 0.624327 0.119657
vt 0.593750 0.121126
vt 0.593750 0.114751
vt 0.577561 0.125000
vt 0.562500 0.129987
vt 0.562500 0.125000
vt 0.562500 0.111736
vt 0.531250 0.125000
vt 0.531250 0.110551
vt 0.504622 0.187500
vt 0.500000 0.201593
vt 0.500000 0.187500
vt 0.500000 0.125000
vt 0.500000 0.111130
vt 0.468750 0.125000
vt 0.468750 0.113506
vt 0.340134 0.237128
vt 0.403694 0.157077
vt 0.406250 0.156543
vt 0.437500 0.162258
vt 0.468750 0.182702
vt 0.472662 0.187500
vt 0.489336 0.250000
vt 0.488223 0.256974
vt 0.404014 0.305528
vt 0.437500 0.125000
vt 0.437500 0.117810
vt 0.406250 0.151228
vt 0.261967 0.280860
vt 0.250000 0.280337
vt 0.218750 0.267587
vt 0.204671 0.257546
vt 0.274014 0.201760
vt 0.418811 0.121684
vt 0.418576 0.125000
vt 0.250000 0.301336
vt 0.245934 0.312500
vt 0.234603 0.375000
vt 0.218750 0.375000
vt 0.218750 0.312500
vt 0.977875 0.234845
vt 0.975451 0.250000
vt 0.968750 0.250000
vt 0.968750 0.233502
vt 0.979180 0.312500
vt 0.968750 0.312500
vt 0.777147 0.394969
vt 0.901437 0.421892
vt 0.860744 0.499740
vt 0.829655 0.554846
vt 0.771589 0.479970
vt 0.769780 0.437500
vt 0.741680 0.234813
vt 0.749274 0.187500
vt 0.750000 0.185962
vt 0.768104 0.160011
vt 0.956295 0.230501
vt 0.959015 0.250000
vt 0.952070 0.312500
vt 0.937620 0.363734
vt 0.766651 0.375000
vt 0.750000 0.323819
vt 0.746887 0.312500
vt 0.745758 0.299913
vt 0.712267 0.801755
vt 0.503237 0.738390
vt 0.501472 0.736144
vt 0.622365 0.661581
vt 0.669728 0.685852
vt 0.761617 0.787065
vt 0.750000 0.152716
vt 0.750000 0.437500
vt 0.750000 0.375000
vt 0.984711 0.335487
vt 0.968750 0.340030
vt 0.750000 0.477004
vt 0.538086 0.716005
vt 0.353725 0.668306
vt 0.339136 0.665928
vt 0.218750 0.382480
vt 0.207796 0.375000
vt 0.233582 0.403149
vt 0.247906 0.447701
vt 0.366713 0.422572
vt 0.427210 0.678242
vt 0.307297 0.609188
vt 0.687500 0.133402
vt 0.687500 0.138442
vt 0.668271 0.129139
vt 0.718750 0.142108
vt 0.718750 0.168529
vt 0.730135 0.187500
vt 0.531250 0.151603
vt 0.745852 0.312500
vt 0.737457 0.375000
vt 0.734013 0.437500
vt 0.728629 0.410920
vt 0.739028 0.480658
vt 0.140884 0.452407
vt 0.190167 0.365869
vt 0.201555 0.312500
vt 0.545441 0.361082
vt 0.489817 0.257210
vt 0.489961 0.250000
vt 0.473950 0.335487
s 0
usemtl Material
f 50/1/1 49/2/1 17/3/1
f 40/4/2 39/5/2 2/6/2
f 18/7/3 2/6/3 3/8/3 19/9/3
f 43/10/4 42/11/4 4/12/4
f 19/9/5 3/8/5 5/13/5 20/14/5
f 20/14/6 5/13/6 6/15/6 21/16/6
f 97/17/7 98/18/7 86/19/7 85/20/7 82/21/7 83/22/7 84/23/7 87/24/7 88/25/7
f 21/16/8 6/15/8 7/26/8 22/27/8
f 89/28/9 98/18/9 97/17/9 94/29/9 91/30/9 92/31/9 96/32/9 95/33/9 93/34/9 90/35/9
f 94/29/10 34/36/10 91/30/10
f 35/37/11 36/38/11 8/39/11 9/40/11
f 65/41/12 62/42/12 11/43/12 23/44/12
f 62/42/13 63/45/13 10/46/13 11/43/13
f 78/47/14 77/48/14 29/49/14 28/50/14 27/51/14 26/52/14
f 80/53/15 79/54/15 73/55/15 74/56/15 75/57/15 70/58/15 69/59/15 72/60/15 77/48/15 78/47/15 76/61/15 71/62/15 68/63/15 81/64/15
f 99/65/16 101/66/16 102/67/16 103/68/16 104/69/16 100/70/16
f 74/56/17 73/55/17 24/71/17
f 78/47/18 26/52/18 1/72/18 12/73/18 76/61/18
f 63/45/19 64/74/19 13/75/19 10/46/19
f 26/52/20 27/51/20 14/76/20 1/72/20
f 71/62/21 76/61/21 12/73/21
f 101/66/22 99/65/22 25/77/22 33/78/22 32/79/22
f 8/39/23 30/80/23 31/81/23
f 36/38/24 37/82/24 30/80/24 8/39/24
f 55/83/25 56/84/25 53/85/25 54/86/25
f 91/30/26 34/36/26 35/37/26 9/40/26 92/31/26
f 16/87/27 48/88/27 51/89/27
f 15/90/28 47/91/28 48/88/28 16/87/28
f 79/54/29 80/53/29 46/92/29
f 3/8/30 41/93/30 43/10/30 4/12/30 5/13/30
f 17/3/31 49/2/31 40/4/31 2/6/31 18/7/31
f 2/6/32 39/5/32 41/93/32 3/8/32
f 81/64/33 68/63/33 38/94/33
f 71/62/34 12/73/34 45/95/34 38/94/34 68/63/34
f 97/17/35 88/25/35 56/84/35 55/83/35 37/82/35 36/38/35 35/37/35 34/36/35 94/29/35
f 12/73/36 1/72/36 58/96/36 60/97/36 45/95/36
f 100/70/37 104/69/37 57/98/37 14/76/37 27/51/37 28/50/37
f 1/72/38 14/76/38 57/98/38 58/96/38
f 31/81/39 30/80/39 37/82/39 55/83/39 54/86/39 32/79/39 33/78/39 66/99/39 67/100/39
f 9/40/40 8/39/40 31/81/40 67/100/40 61/101/40
f 92/31/41 9/40/41 61/101/41 96/32/41
f 38/94/42 45/95/42 60/97/42 59/102/42 52/103/42 44/104/42 42/11/42 43/10/42 41/93/42 39/5/42 40/4/42 49/2/42 50/1/42 51/89/42 48/88/42 47/91/42 46/92/42 80/53/42 81/64/42
f 93/34/43 95/33/43 65/41/43 23/44/43 75/57/43 74/56/43 24/71/43 15/90/43 16/87/43 51/89/43 50/1/43 17/3/43 18/7/43 19/9/43 20/14/43 21/16/43 22/27/43
f 24/71/44 73/55/44 79/54/44 46/92/44 47/91/44 15/90/44
f 66/99/45 33/78/45 25/77/45 29/49/45 77/48/45 72/60/45 13/75/45 64/105/45
f 23/44/46 11/43/46 70/58/46 75/57/46
f 11/43/47 10/46/47 69/59/47 70/58/47
f 10/46/48 13/75/48 72/60/48 69/59/48
f 89/28/49 86/19/49 98/18/49
f 44/104/50 52/103/50 87/24/50 84/23/50
f 4/12/51 42/11/51 44/104/51 84/23/51 83/22/51
f 5/13/52 4/12/52 83/22/52 82/21/52 6/15/52
f 6/15/53 82/21/53 85/20/53 7/26/53
f 66/99/54 64/105/54 63/45/54 62/42/54 65/41/54 95/33/54 96/32/54 61/101/54 67/100/54
f 22/27/55 7/26/55 90/35/55 93/34/55
f 7/26/56 85/20/56 86/19/56 89/28/56 90/35/56
f 58/96/57 57/98/57 104/69/57 103/68/57 59/102/57 60/97/57
f 88/25/58 87/24/58 52/103/58 59/102/58 103/68/58 102/67/58 53/85/58 56/84/58
f 53/85/59 102/67/59 101/66/59 32/79/59 54/86/59
f 28/50/60 29/49/60 25/77/60 99/65/60 100/70/60
