# Blender 5.1.0
# www.blender.org
mtllib kamyk2.mtl
o Sphere.008
v -2.290981 5.243499 26.355444
v -7.544344 0.705732 24.933491
v -2.290981 4.795398 25.338902
v -7.801519 0.809051 25.357513
v -2.290981 5.407099 27.042578
v -1.750561 1.771246 22.802301
v -1.290281 1.518548 22.764629
v -0.405991 0.570191 22.776308
v -2.290981 1.979004 22.862680
v -0.420719 2.735083 32.687820
v -2.372313 2.711922 32.612167
v -3.071159 5.181662 26.364382
v -3.154217 5.350955 27.104053
v -5.318121 4.620629 28.477669
v -6.866829 3.588156 27.686085
v -2.152287 4.164246 24.433586
v -1.824951 4.758460 25.344240
v -1.847137 2.484603 23.086046
v -1.658712 2.174722 22.969152
v -1.255917 1.591390 22.797047
v -0.303492 0.630044 22.801117
v -0.614786 0.898330 22.754627
v -1.054298 1.342910 22.753685
v -1.851419 5.387391 27.111172
v 0.113434 3.280978 31.592503
v -1.660408 5.193520 26.362669
v 2.059549 1.288806 25.804583
v -1.460232 4.987084 25.932642
v -2.186901 4.166989 24.433189
v -7.381655 1.137325 24.871107
v -6.677845 0.670514 24.065105
v -2.290981 4.287550 24.596237
v -7.691616 1.777015 25.595549
v -2.290981 2.495875 23.071314
v -2.650782 2.063901 22.912582
v -6.365101 0.628298 23.847569
v -2.909643 4.746362 25.345989
v -7.358095 2.967750 26.415333
v -3.314074 4.857474 25.675406
v -2.274763 2.518495 23.081148
v -2.083809 3.174884 23.528927
v -2.153795 4.009620 24.280025
v -7.129036 0.573888 24.490870
v -6.712698 0.578051 24.078470
v -7.807838 0.563770 25.354408
v -0.398897 0.554894 22.777798
v -0.571138 0.395325 32.009369
v -4.750139 0.428058 31.871061
v -5.712809 0.451482 30.927456
v -0.204807 0.552691 22.823425
v 2.179893 0.494963 25.143898
v -7.561083 0.568968 24.953260
v -6.393803 0.579514 23.861637
vn 0.2000 0.0627 -0.9778
vn -0.7306 -0.0093 -0.6828
vn -0.4470 0.8598 -0.2470
vn -0.4044 0.5928 -0.6965
vn -0.0403 0.3740 -0.9266
vn -0.0769 0.9123 -0.4022
vn -0.8516 0.0286 -0.5235
vn -0.0795 0.9697 -0.2309
vn 0.7245 0.6893 0.0063
vn -0.0717 0.8233 -0.5630
vn -0.0340 -0.2763 0.9605
vn -0.0073 -0.9998 -0.0174
vn 0.1954 0.3203 -0.9269
vn 0.1196 0.3560 -0.9268
vn 0.0533 0.5521 -0.8321
vn 0.0638 0.7029 -0.7084
vn 0.0717 0.8233 -0.5630
vn 0.0769 0.9123 -0.4022
vn 0.9164 -0.1647 0.3648
vn -0.0275 0.9000 0.4351
vn 0.0795 0.9697 -0.2309
vn -0.1758 -0.1759 -0.9686
vn 0.0403 0.3740 -0.9266
vn -0.9357 0.0196 0.3522
vn -0.5602 0.0922 -0.8232
vn -0.6954 0.1609 -0.7004
vn -0.8076 0.2257 -0.5448
vn 0.5793 0.5715 -0.5812
vn -0.6234 0.4391 0.6469
vn 0.2290 0.0114 -0.9734
vt 0.624327 0.119657
vt 0.593750 0.121126
vt 0.593750 0.114751
vt 0.968750 0.279465
vt 0.973832 0.312500
vt 0.968750 0.312500
vt 0.777147 0.394969
vt 0.901437 0.421892
vt 0.860744 0.499740
vt 0.829655 0.554846
vt 0.771589 0.479970
vt 0.769780 0.437500
vt 0.741680 0.234813
vt 0.749274 0.187500
vt 0.750000 0.185962
vt 0.768104 0.160011
vt 0.956295 0.230501
vt 0.959015 0.250000
vt 0.952070 0.312500
vt 0.937620 0.363734
vt 0.766651 0.375000
vt 0.750000 0.323819
vt 0.746887 0.312500
vt 0.745758 0.299913
vt 0.750000 0.152716
vt 0.750000 0.437500
vt 0.750000 0.375000
vt 0.977246 0.337612
vt 0.968750 0.340030
vt 0.750000 0.477004
vt 0.734013 0.437500
vt 0.739028 0.480658
vt 0.646320 0.755160
vt 0.545441 0.361082
vt 0.728629 0.410920
vt 0.531311 0.756032
vt 0.644981 0.829608
vt 0.751635 0.821136
vt 0.586918 0.740046
vt 0.596990 0.676524
vt 0.963217 0.250000
vt 0.958835 0.231113
vt 0.592326 0.114613
vt 0.584889 0.123247
vt 0.520481 0.314473
vt 0.687500 0.133402
vt 0.687500 0.138442
vt 0.668271 0.129139
vt 0.718750 0.142108
vt 0.718750 0.168529
vt 0.730135 0.187500
vt 0.745852 0.312500
vt 0.737457 0.375000
vt 0.705367 0.337612
s 1
f 22/1/1 21/2/1 8/3/1
f 43/4/2 52/5/2 2/6/2
f 39/7/3 38/8/3 15/9/3 14/10/3 13/11/3 12/12/3
f 41/13/4 40/14/4 34/15/4 35/16/4 36/17/4 31/18/4 30/19/4 33/20/4 38/8/4 39/7/4 37/21/4 32/22/4 29/23/4 42/24/4
f 35/16/5 34/15/5 9/25/5
f 39/7/6 12/12/6 1/26/6 3/27/6 37/21/6
f 52/5/7 45/28/7 4/29/7 2/6/7
f 12/12/8 13/11/8 5/30/8 1/26/8
f 26/31/9 24/32/9 25/33/9 27/34/9 28/35/9
f 32/22/10 37/21/10 3/27/10
f 47/36/11 10/37/11 11/38/11 48/39/11
f 49/40/12 45/28/12 52/5/12 43/4/12 44/41/12 53/42/12 46/43/12 50/44/12 51/45/12 47/36/12 48/39/12
f 7/46/13 20/47/13 23/48/13
f 6/49/14 19/50/14 20/47/14 7/46/14
f 40/14/15 41/13/15 18/51/15
f 42/24/16 29/23/16 16/52/16
f 32/22/17 3/27/17 17/53/17 16/52/17 29/23/17
f 3/27/18 1/26/18 26/31/18 28/35/18 17/53/18
f 47/36/19 51/45/19 27/34/19 25/33/19 10/37/19
f 11/38/20 10/37/20 25/33/20 24/32/20 5/30/20 13/11/20 14/10/20
f 1/26/21 5/30/21 24/32/21 26/31/21
f 46/43/22 53/42/22 36/17/22 35/16/22 9/25/22 6/49/22 7/46/22 23/48/22 22/1/22 8/3/22
f 9/25/23 34/15/23 40/14/23 18/51/23 19/50/23 6/49/23
f 45/54/24 49/40/24 15/9/24 38/8/24 33/20/24 4/29/24
f 53/42/25 44/41/25 31/18/25 36/17/25
f 43/4/26 2/6/26 30/19/26 31/18/26 44/41/26
f 2/6/27 4/29/27 33/20/27 30/19/27
f 16/52/28 17/53/28 28/35/28 27/34/28 51/45/28 50/44/28 21/2/28 22/1/28 23/48/28 20/47/28 19/50/28 18/51/28 41/13/28 42/24/28
f 14/10/29 15/9/29 49/40/29 48/39/29 11/38/29
f 8/3/30 21/2/30 50/44/30 46/43/30
