# Blender 5.1.0
# www.blender.org
mtllib kamyk4.mtl
o Sphere.001
v 4.086587 1.204724 -0.508908
v 3.943042 2.422029 0.948528
v 3.968344 1.813377 0.965435
v 3.943042 1.204724 0.948528
v 3.686134 3.007292 1.120189
v 3.749863 2.422029 1.183918
v 3.771381 1.813377 1.205436
v 2.057037 1.204724 1.520641
v 1.788483 2.422029 1.377096
v 1.771576 1.813377 1.402399
v 1.788483 1.204724 1.377096
v 1.838555 0.619461 1.302159
v 1.616823 3.007292 1.120189
v 1.553094 2.422029 1.183917
v 1.531575 1.813377 1.205435
v 1.553094 1.204724 1.183917
v 1.434852 3.007292 0.898457
v 1.359915 2.422029 0.948528
v 1.334612 1.813377 0.965434
v 1.359915 1.204724 0.948528
v 1.216370 1.204724 0.679974
v 1.919867 3.546673 -1.009401
v 1.771577 1.813377 -1.231333
v 1.788484 1.204724 -1.206030
v 1.838555 0.619461 -1.131093
v 2.057038 1.204724 -1.349575
v 2.091527 0.619461 -1.266309
v 2.366018 0.619461 -1.349575
v 2.651478 0.619461 -1.377690
v 1.926900 3.577058 -0.998876
v 2.143642 3.509172 -1.140494
v 2.018762 3.546673 -1.062262
v 3.911757 2.666368 0.927624
v 3.680787 3.035158 1.114842
v 3.698240 3.007292 1.105438
v 3.448558 3.405961 1.175895
v 1.609674 0.685111 1.127337
v 1.674400 0.619461 1.167441
v 1.399099 0.898695 0.922346
v 1.236436 1.063682 0.671662
v 1.609674 0.685111 -0.956271
v 1.868186 0.422907 -1.086748
v 1.674400 0.619461 -0.996374
v 2.940527 0.738897 -1.367615
v 3.231411 0.958520 -1.314548
v 3.507398 1.122022 -1.195441
v 4.082423 1.175456 -0.507183
v 2.651478 0.465568 -1.335933
v 2.807862 0.619461 -1.362288
v 3.607806 1.813377 1.339678
v 3.546900 3.007292 1.234455
v 3.631492 2.422029 1.281062
v 2.360705 0.796303 1.547351
v 2.054748 1.324339 1.526167
v 2.098674 1.204724 1.533272
v 1.902707 2.422029 1.438150
v 1.938085 1.813377 1.491400
v 1.978513 3.007292 1.376968
v 1.980633 3.013505 1.376199
v 3.422493 3.361179 1.212929
v 3.507278 1.204724 -1.209877
v 4.088796 1.252548 -0.509823
v 3.259455 3.707903 -0.725916
v 3.513738 1.196126 -1.204930
v 4.060099 1.204724 -0.558463
v 4.047401 1.190878 -0.577718
v 3.579312 1.149980 -1.141966
v 1.210423 1.333466 0.682437
v 1.227008 1.813377 0.764122
v 1.271229 2.422029 0.782608
v 1.336936 3.007292 0.715269
v 1.208101 1.204724 0.652715
v 1.840117 3.017657 -1.128754
v 1.772225 1.836672 -1.230364
v 1.830417 3.546673 -0.935992
v 1.770323 1.813377 -1.230303
v 1.693138 1.204724 -1.127782
v 1.840147 3.007292 -1.131944
v 1.817139 2.422029 -1.221346
v 1.823259 3.631941 -0.884383
v 1.607040 0.709302 -0.958905
v 1.603175 0.691704 -0.949944
v 1.211952 1.088516 0.604059
v 3.247251 1.204724 -1.348864
v 2.096966 3.059669 -1.253179
v 2.051327 1.503175 -1.363361
v 1.981850 1.813377 -1.343726
v 2.356971 0.920600 -1.395057
v 2.160622 1.204724 -1.380997
v 2.651478 0.752162 -1.398125
v 2.360333 3.472734 -1.216509
v 2.943627 0.842082 -1.383199
v 3.245735 1.201581 -1.349128
v 2.917295 3.480903 -1.199467
v 3.326659 1.522088 -1.324325
v 2.075027 3.007292 -1.257490
v 1.967280 2.422029 -1.301598
v 4.140008 1.204724 -0.332801
v 4.061432 1.027917 0.669555
v 4.013581 1.813377 0.880804
v 3.992550 2.422029 0.855905
v 4.047616 1.204724 0.752883
v 3.991099 2.539681 0.820370
v 4.139255 1.064698 -0.261362
v 4.080370 2.397142 -0.164930
v 4.135380 1.457517 -0.391392
v 1.838129 3.002313 1.302797
v 1.621862 3.033555 1.115149
v 1.799983 3.007292 1.270504
v 1.459896 3.118295 0.881723
v 3.087549 3.982387 0.629374
v 1.896475 3.007292 1.333118
v 1.978555 3.015064 1.374611
v 2.965213 4.177722 0.254184
v 1.670947 3.944459 -0.232430
v 1.372223 3.232083 0.652515
v 3.925952 1.071252 0.937109
v 3.766527 1.676085 1.200582
v 3.923020 1.204724 0.972925
v 3.602293 1.787770 1.342555
v 4.037669 0.860886 0.659712
v 2.362928 0.722291 1.536172
v 2.088718 0.667123 1.444157
v 1.885237 0.619461 1.327111
v 1.840176 0.608705 1.299733
v 2.123711 0.309521 -1.188611
v 1.990230 0.299119 -1.114079
v 1.718728 0.574500 1.188113
v 2.380943 0.337522 -1.274543
v 2.560658 0.362006 -1.298887
v 2.439888 0.735540 1.545792
v 4.117175 0.798387 0.117119
v 4.082358 0.846445 0.504767
v 3.046168 0.820777 1.482795
v 3.913921 0.874237 0.895568
vn 0.0946 -0.2607 -0.9608
vn 0.0295 0.0697 -0.9971
vn 0.8808 -0.0497 -0.4708
vn 0.8808 -0.0497 0.4708
vn 0.8717 0.1515 0.4660
vn 0.7463 0.2607 0.6125
vn 0.7721 0.0497 0.6336
vn 0.7641 -0.1515 0.6271
vn -0.0969 -0.1515 0.9837
vn -0.2899 -0.0497 0.9558
vn -0.4551 -0.2607 0.8514
vn -0.4708 0.0497 0.8808
vn -0.4660 -0.1515 0.8717
vn -0.6336 0.0497 0.7721
vn -0.6336 -0.0497 0.7721
vn -0.6125 -0.2607 0.7463
vn -0.7641 0.1515 0.6271
vn -0.7721 0.0497 0.6336
vn -0.7721 -0.0497 0.6336
vn -0.7641 -0.1515 0.6271
vn -0.8717 -0.1515 0.4660
vn -0.7641 -0.1515 -0.6271
vn -0.6125 0.2607 -0.7463
vn -0.6336 0.0497 -0.7720
vn -0.6336 -0.0497 -0.7721
vn -0.6125 -0.2607 -0.7463
vn -0.4660 -0.1515 -0.8717
vn 0.1517 -0.9792 0.1350
vn -0.0946 -0.2607 -0.9608
vn -0.2802 0.2607 -0.9238
vn -0.4355 0.3830 -0.8147
vn -0.5860 0.3830 -0.7141
vn -0.6125 0.2607 0.7463
vn -0.3367 0.7858 0.5189
vn 0.7641 0.1515 0.6271
vn 0.8808 0.0497 0.4708
vn -0.6271 -0.1515 0.7641
vn -0.2802 -0.2607 -0.9238
vn -0.4708 -0.0497 0.8808
vn -0.2869 -0.1515 0.9459
vn 0.6271 0.1515 0.7641
vn 0.6125 0.2607 0.7463
vn 0.6336 0.0497 0.7721
vn 0.6336 -0.0497 0.7721
vn 0.8717 -0.1515 -0.4660
vn 0.6271 -0.1515 -0.7641
vn 0.4708 -0.0497 -0.8808
vn -0.6271 -0.1515 -0.7641
vn -0.9459 -0.1515 0.2869
vn -0.8717 0.1515 0.4660
vn -0.8808 0.0497 0.4708
vn -0.8808 -0.0497 0.4708
vn -0.9558 -0.0497 0.2899
vn -0.4660 0.1515 -0.8717
vn 0.7476 0.1967 -0.6344
vn 0.2869 -0.1515 -0.9459
vn -0.0000 0.9017 -0.4323
vn 0.0969 -0.1515 -0.9837
vn -0.2869 -0.1515 -0.9459
vn -0.0969 -0.1515 -0.9837
vn -0.4708 0.0497 -0.8808
vn -0.4708 -0.0497 -0.8808
vn -0.2899 -0.0497 -0.9558
vn -0.4551 0.2607 -0.8514
vn 0.4660 -0.1515 -0.8717
vn 0.5907 -0.6757 -0.4410
vn 0.9459 -0.1515 0.2869
vn 0.9459 -0.1515 -0.2869
vn 0.9558 -0.0497 -0.2899
vn -0.9619 0.0778 -0.2620
vn -0.4551 0.2607 0.8514
vn 0.8475 0.5308 -0.0000
vn -0.0748 0.6610 0.7466
vn -0.8514 0.2607 0.4551
vn -0.7463 0.2607 0.6125
vn -0.6271 0.1515 0.7641
vn -0.4660 0.1515 0.8717
vn 0.7721 -0.0497 0.6336
vn 0.8717 -0.1515 0.4660
vn 0.5573 -0.2038 0.8049
vn 0.9957 0.0379 0.0847
vn 0.0901 0.0920 0.9917
vn -0.7121 -0.7021 -0.0000
vn -0.4551 -0.2607 -0.8514
vt 0.750000 0.357168
vt 0.750000 0.375000
vt 0.732880 0.375000
vt 0.687500 0.437164
vt 0.718750 0.398774
vt 0.750000 0.389171
vt 0.781250 0.407158
vt 0.801391 0.437500
vt 0.812500 0.468147
vt 0.819752 0.500000
vt 0.822944 0.562500
vt 0.814538 0.625000
vt 0.812500 0.631069
vt 0.785056 0.678932
vt 0.712872 0.680111
vt 0.678811 0.470089
vt 0.687345 0.437500
vt 0.568266 0.437500
vt 0.562500 0.442411
vt 0.562500 0.437500
vt 0.429016 0.437500
vt 0.415909 0.500000
vt 0.406250 0.500000
vt 0.406250 0.437500
vt 0.419992 0.575064
vt 0.406250 0.588593
vt 0.406250 0.562500
vt 0.417028 0.562500
vt 0.377079 0.625000
vt 0.375000 0.628229
vt 0.375000 0.625000
vt 0.375000 0.562500
vt 0.375000 0.500000
vt 0.406250 0.423247
vt 0.403011 0.437500
vt 0.227219 0.387396
vt 0.218750 0.393885
vt 0.218750 0.385981
vt 0.191965 0.437500
vt 0.187500 0.449783
vt 0.187500 0.437500
vt 0.156250 0.373754
vt 0.162017 0.375000
vt 0.156250 0.375000
vt 0.175253 0.500000
vt 0.169542 0.562500
vt 0.156250 0.562500
vt 0.156250 0.500000
vt 0.187500 0.380090
vt 0.156250 0.437500
vt 0.125000 0.562500
vt 0.125000 0.500000
vt 0.125000 0.437500
vt 0.133115 0.375000
vt 0.138407 0.369790
vt 0.125000 0.625000
vt 0.093750 0.625000
vt 0.093750 0.562500
vt 0.093750 0.500000
vt 0.093750 0.437500
vt 0.125000 0.382011
vt 0.093750 0.404819
vt 0.062500 0.437500
vt 0.062500 0.422438
vt 0.875965 0.382715
vt 0.875000 0.384594
vt 0.875000 0.382011
vt 0.843750 0.626201
vt 0.857758 0.687500
vt 0.843750 0.687500
vt 0.843913 0.500000
vt 0.843750 0.502392
vt 0.843750 0.500000
vt 0.856408 0.437500
vt 0.843750 0.437500
vt 0.843750 0.352225
vt 0.866885 0.375000
vt 0.843750 0.375000
vt 0.812500 0.437500
vt 0.812500 0.375000
vt 0.437500 0.400782
vt 0.409299 0.402207
vt 0.293126 0.395853
vt 0.829751 0.337881
vt 0.812500 0.339086
vt 0.781250 0.342331
vt 0.760852 0.345168
vt 0.496105 0.394107
vt 0.454892 0.399240
vt 0.781250 0.375000
vt 0.812500 0.683155
vt 0.843750 0.691517
vt 0.830176 0.687500
vt 0.862694 0.698772
vt 0.150814 0.625000
vt 0.125000 0.628043
vt 0.173400 0.625901
vt 0.319756 0.750219
vt 0.338917 0.776711
vt 0.864859 0.741797
vt 0.066252 0.651047
vt 0.093750 0.637862
vt 0.156250 0.624468
vt 0.163405 0.625000
vt 0.355377 0.625000
vt 0.359285 0.562500
vt 0.350680 0.671195
vt 0.345541 0.666006
vt 0.353701 0.500000
vt 0.375000 0.485902
vt 0.353076 0.497371
vt 0.562500 0.434374
vt 0.570602 0.436021
vt 0.656250 0.428668
vt 0.656250 0.436582
vt 0.647020 0.431654
vt 0.657087 0.437500
vt 0.059577 0.437500
vt 0.055066 0.425090
vt 0.071121 0.625000
vt 0.074443 0.562500
vt 0.070775 0.500000
vt 0.062500 0.450720
vt 0.840416 0.562500
vt 0.843553 0.625000
vt 0.526094 0.561912
vt 0.549605 0.463458
vt 0.586528 0.710146
vt 0.718750 0.387755
vt 0.687500 0.411208
vt 0.536419 0.422547
vt 0.437500 0.418619
vt 0.543614 0.437500
vt 0.301540 0.741797
vt 0.173685 0.625720
vt 0.173539 0.625000
s 0
f 48/1/1 29/2/1 49/3/1
f 93/4/2 92/5/2 90/6/2 88/7/2 89/8/2 86/9/2 87/10/2 97/11/2 96/12/2 85/13/2 91/14/2 94/15/2 95/16/2 84/17/2
f 65/18/3 62/19/3 1/20/3
f 102/21/4 100/22/4 3/23/4 4/24/4
f 103/25/5 33/26/5 2/27/5 101/28/5
f 35/29/6 34/30/6 5/31/6
f 3/23/7 2/27/7 6/32/7 7/33/7
f 117/34/8 4/24/8 119/35/8
f 131/36/9 53/37/9 122/38/9
f 55/39/10 54/40/10 8/41/10
f 125/42/11 124/43/11 12/44/11
f 57/45/12 56/46/12 9/47/12 10/48/12
f 123/49/13 8/41/13 11/50/13 12/44/13 124/43/13
f 10/48/14 9/47/14 14/51/14 15/52/14
f 11/50/15 10/48/15 15/52/15 16/53/15
f 125/42/16 12/44/16 38/54/16 128/55/16
f 14/51/17 13/56/17 17/57/17 18/58/17
f 15/52/18 14/51/18 18/58/18 19/59/18
f 16/53/19 15/52/19 19/59/19 20/60/19
f 37/61/20 16/53/20 20/60/20 39/62/20
f 39/62/21 20/60/21 21/63/21 40/64/21
f 82/65/22 81/66/22 41/67/22
f 73/68/23 75/69/23 22/70/23
f 76/71/24 74/72/24 23/73/24
f 77/74/25 76/71/25 23/73/25 24/75/25
f 42/76/26 43/77/26 25/78/26
f 25/78/27 24/75/27 26/79/27 27/80/27
f 121/81/28 135/82/28 134/83/28 131/36/28 122/38/28 123/49/28 124/43/28 125/42/28 128/55/28 127/84/28 126/85/28 129/86/28 130/87/28 132/88/28 133/89/28
f 129/86/29 28/90/29 29/2/29 48/1/29 130/87/29
f 85/13/30 31/91/30 91/14/30
f 22/70/31 30/92/31 32/93/31
f 75/69/32 80/94/32 30/92/32 22/70/32
f 109/95/33 108/96/33 13/56/33
f 113/97/34 111/98/34 114/99/34 115/100/34 116/101/34 110/102/34 108/96/34 109/95/34 107/103/34 112/104/34
f 2/27/35 33/26/35 35/29/35 5/31/35 6/32/35
f 100/22/36 101/28/36 2/27/36 3/23/36
f 12/44/37 11/50/37 16/53/37 37/61/37 38/54/37
f 126/85/38 27/80/38 28/90/38 129/86/38
f 8/41/39 54/40/39 57/45/39 10/48/39 11/50/39
f 122/38/40 53/37/40 55/39/40 8/41/40 123/49/40
f 6/32/41 5/31/41 51/105/41 52/106/41
f 5/31/42 34/30/42 36/107/42 60/108/42 51/105/42
f 7/33/43 6/32/43 52/106/43 50/109/43
f 118/110/44 7/33/44 50/109/44 120/111/44
f 47/112/45 66/113/45 65/18/45 1/20/45
f 46/114/46 64/115/46 67/116/46
f 84/17/47 95/16/47 61/117/47
f 41/67/48 81/66/48 77/74/48 24/75/48 25/78/48 43/77/48
f 40/64/49 21/63/49 72/118/49 83/119/49
f 18/58/50 17/57/50 71/120/50 70/121/50
f 19/59/51 18/58/51 70/121/51 69/122/51
f 20/60/52 19/59/52 69/122/52 68/123/52 21/63/52
f 21/63/53 68/123/53 72/118/53
f 79/124/54 78/125/54 96/12/54 97/11/54
f 105/126/55 106/127/55 62/19/55 65/18/55 66/113/55 67/116/55 64/115/55 61/117/55 95/16/55 94/15/55 63/128/55
f 44/129/56 92/5/56 93/4/56 45/130/56
f 115/100/57 114/99/57 63/128/57 94/15/57 91/14/57 31/91/57 32/93/57 30/92/57 80/94/57
f 29/2/58 90/6/58 92/5/58 44/129/58 49/3/58
f 27/80/59 26/79/59 89/8/59 88/7/59 28/90/59
f 28/90/60 88/7/60 90/6/60 29/2/60
f 23/73/61 74/72/61 79/124/61 97/11/61 87/10/61
f 24/75/62 23/73/62 87/10/62 86/9/62 26/79/62
f 26/79/63 86/9/63 89/8/63
f 73/68/64 22/70/64 32/93/64 31/91/64 85/13/64 96/12/64 78/125/64
f 45/130/65 93/4/65 84/17/65 61/117/65 64/115/65 46/114/65
f 132/88/66 130/87/66 48/1/66 49/3/66 44/129/66 45/130/66 46/114/66 67/116/66 66/113/66 47/112/66 104/131/66
f 121/81/67 133/89/67 99/132/67
f 47/112/68 1/20/68 98/133/68 104/131/68
f 1/20/69 62/19/69 106/127/69 98/133/69
f 69/122/70 70/121/70 71/120/70 116/101/70 115/134/70 80/94/70 75/69/70 73/68/70 78/125/70 79/124/70 74/72/70 76/71/70 77/74/70 81/66/70 82/65/70 83/119/70 72/118/70 68/123/70
f 59/135/71 113/97/71 112/104/71 58/136/71
f 105/126/72 63/128/72 114/99/72 111/98/72 36/107/72 34/30/72 35/29/72 33/26/72 103/25/72
f 36/107/73 111/98/73 113/97/73 59/135/73 60/108/73
f 17/57/74 110/102/74 116/101/74 71/120/74
f 13/56/75 108/96/75 110/102/75 17/57/75
f 9/47/76 107/103/76 109/95/76 13/56/76 14/51/76
f 56/46/77 58/136/77 112/104/77 107/103/77 9/47/77
f 4/24/78 3/23/78 7/33/78 118/110/78 119/35/78
f 121/81/79 99/132/79 102/21/79 4/24/79 117/34/79 135/82/79
f 118/110/80 120/111/80 134/83/80 135/82/80 117/34/80 119/35/80
f 98/133/81 106/127/81 105/126/81 103/25/81 101/28/81 100/22/81 102/21/81 99/132/81 133/89/81 132/88/81 104/131/81
f 60/108/82 59/135/82 58/136/82 56/46/82 57/45/82 54/40/82 55/39/82 53/37/82 131/36/82 134/83/82 120/111/82 50/109/82 52/106/82 51/105/82
f 42/76/83 127/84/83 128/55/83 38/54/83 37/61/83 39/62/83 40/64/83 83/119/83 82/65/83 41/67/83 43/77/83
f 42/76/84 25/78/84 27/80/84 126/85/84 127/84/84
