# Blender 5.1.0
# www.blender.org
mtllib kamyk7.mtl
o Sphere.002
v -1.720211 4.128073 -9.468901
v -0.632681 3.197875 -9.558890
v -1.192299 2.292169 -10.009480
v -1.192300 0.933257 -9.439292
v -1.510566 0.626296 -9.310494
v -1.192300 0.967836 -6.663627
v -2.124258 1.030192 -6.247151
v -1.874197 0.679338 -6.542575
v -3.056215 1.264181 -5.957355
v -2.824414 0.837261 -6.166200
v -3.702299 1.163144 -5.914960
v -3.584128 0.718455 -6.116349
v -4.374203 1.129029 -5.900645
v -4.374203 0.678340 -6.099517
v -5.046107 1.163144 -5.914960
v -8.531559 1.021307 -8.645621
v -7.237838 4.242387 -7.594962
v -7.556105 4.248538 -8.040181
v -6.287623 4.380809 -7.265066
v -6.624146 4.502028 -7.703905
v -6.874207 4.537035 -8.161232
v -7.028192 4.484485 -8.619474
v -5.923990 4.694960 -7.784856
v -6.096235 4.751410 -8.251182
v -6.202302 4.712061 -8.714964
v -5.306159 4.852202 -8.773766
v -5.252087 4.184291 -9.972782
v -8.719027 1.106727 -8.329841
v -8.235010 1.434420 -6.859402
v -8.697646 1.051199 -8.177872
v -7.569116 4.034288 -7.507646
v -7.650298 4.189369 -8.015354
v -1.256791 2.267654 -10.029307
v -1.415223 2.507174 -10.099695
v -1.167494 1.914680 -9.926383
v -1.208645 1.569847 -9.826548
v -1.366697 1.246186 -9.733507
v -1.625372 0.953587 -9.650041
v -1.967468 0.699105 -9.578100
v -2.376067 0.487463 -9.518962
v -1.418898 1.197091 -6.444672
v -2.270027 1.202618 -6.151443
v -1.794739 1.169605 -6.305648
v -3.151821 1.421622 -5.915640
v -2.871879 1.314976 -5.978667
v -3.685844 1.675025 -5.811337
v -5.857408 4.651852 -7.655326
v -5.837441 4.504859 -7.317115
v -5.270864 4.872579 -8.468816
v -5.848472 4.706769 -7.789813
v -5.498479 4.844888 -8.290404
v -3.841215 1.632771 -5.804833
v -4.374203 1.413563 -5.836676
v -5.029222 1.220227 -5.901575
v -5.760892 1.137650 -6.019252
v -5.203604 1.187775 -5.925295
v -6.516416 1.157624 -6.176418
v -7.831967 1.536857 -6.566765
v -6.919467 4.181149 -7.280879
v -6.219060 4.346906 -7.197600
v -6.469092 4.304034 -7.232852
v -7.558563 3.914459 -7.317759
v -8.093623 1.736626 -6.686524
v -3.795045 1.657946 -5.804171
v -3.726987 1.708539 -5.807760
v -3.654568 3.687593 -6.463755
v -5.691809 4.385045 -7.105563
v -0.932985 0.476920 -7.458910
v -1.210242 0.463512 -8.854215
v -1.760244 0.469456 -9.244685
v -1.781098 0.503904 -6.759350
v -1.470141 0.494973 -6.945510
v -0.943586 0.477429 -7.437635
v -2.680976 0.527229 -6.404723
v -2.447180 0.521450 -6.476327
v -3.545120 0.547204 -6.241127
v -4.374203 0.565051 -6.180575
v -7.877284 0.601759 -8.751600
v -7.747383 0.596922 -8.910192
v -2.344328 0.478009 -9.495631
v -2.399874 0.478862 -9.516599
v -1.133950 0.886736 -6.772593
v -1.154365 0.991665 -6.673625
v -1.077686 0.661013 -7.015179
v -0.937279 0.480097 -7.438755
v -1.147516 1.264695 -6.560280
v -0.931945 0.479183 -7.452014
v -8.673443 1.262433 -8.746796
v -7.665205 4.209393 -8.291121
v -7.029203 4.481798 -8.628065
v -7.051447 4.474646 -8.615346
v -6.236746 4.583535 -9.141436
v -5.234736 4.108116 -10.028285
v -5.275560 4.180620 -9.971242
v -5.660941 4.440308 -9.599913
v -6.210295 4.582778 -9.160205
v -5.081417 3.802996 -10.255434
v -7.720065 4.173892 -8.266781
v -8.741371 1.316995 -8.677885
v -1.726504 4.116215 -9.483553
v -1.899182 4.177389 -9.489594
v -1.121184 3.648251 -9.573586
v -0.989114 2.924687 -9.865840
v -0.974635 3.412680 -9.649021
v -0.997574 2.902022 -9.877393
v -1.455162 2.559034 -10.114965
v -5.063291 3.803917 -10.255819
v -5.059900 3.473094 -10.400293
v -5.065698 3.587323 -10.351290
v -8.134193 0.955250 -9.040883
v -7.987914 0.828910 -9.007532
v -3.939106 0.510213 -9.534271
v -7.688206 0.595153 -8.950650
v -8.244592 1.125440 -9.100194
v -5.934514 2.572660 -10.143875
v -0.886760 2.432988 -9.856740
v -0.583377 3.150323 -9.538938
v -1.017781 1.995583 -9.885036
v -1.160978 0.934316 -9.418022
v -1.160575 0.987171 -9.461914
v -1.116579 0.598865 -8.995480
v -1.098233 0.533873 -8.883738
v -1.028802 1.950666 -9.880479
v -1.099519 1.586643 -9.786518
v -1.143256 1.258338 -9.640326
v -1.027641 0.463149 -8.606904
v -0.798789 0.468000 -7.909326
v -0.765284 0.506686 -7.839621
v -0.791095 2.702877 -9.793833
v -5.159198 0.737574 -6.107691
v -5.100671 0.715226 -6.114994
v -5.853089 0.967847 -6.102319
v -6.519251 1.154271 -6.178279
v -7.993150 1.413318 -6.705570
v -8.210480 0.711633 -8.515685
v -8.225935 1.425668 -6.855729
v -8.654087 1.009187 -8.160243
v -8.678431 1.044859 -8.095447
v -8.241767 1.423763 -6.872368
v -7.371034 1.336396 -6.407103
v -6.579324 1.167960 -6.192441
v -8.012481 0.612239 -8.596092
v -7.998803 0.606336 -8.599391
v -4.775848 0.573057 -6.197996
v -5.316707 4.776583 -9.030615
v -5.284512 4.371082 -9.763149
v -5.477046 4.469066 -9.611979
v -4.757514 4.209403 -9.983318
v -4.840865 4.875829 -8.783679
v -4.738751 4.882782 -8.756760
v -5.500412 4.693791 -9.206785
v -4.635160 4.187479 -10.006057
v -2.216327 4.276126 -9.506661
v -1.714154 4.153505 -9.421385
v -1.553558 4.057566 -9.439317
v -0.493042 3.349805 -9.331619
v -2.060274 3.571577 -6.979331
v -0.587428 2.715703 -7.216959
v -1.053210 3.742725 -9.446647
v -0.216450 2.765413 -8.085218
v -0.462031 3.325022 -9.316015
v -2.520962 4.546034 -9.058679
v -2.190524 4.405300 -9.268268
vn 0.2678 0.6895 -0.6730
vn 0.4398 0.3537 -0.8255
vn 0.3168 -0.0684 -0.9460
vn 0.3168 -0.6271 -0.7116
vn 0.5127 -0.5342 0.6721
vn 0.2795 -0.2745 0.9201
vn 0.1574 -0.1625 0.9741
vn 0.2678 -0.6895 0.6730
vn 0.1200 -0.3829 0.9160
vn 0.1413 -0.5617 0.8151
vn 0.0400 -0.4034 0.9142
vn 0.0468 -0.5813 0.8124
vn -0.1853 0.3153 0.9307
vn -0.1493 -0.4104 -0.8996
vn -0.3556 0.7813 0.5128
vn -0.4398 0.8369 0.3259
vn -0.5127 0.8539 0.0897
vn -0.2167 0.7660 0.6052
vn -0.3382 0.9061 0.2543
vn -0.3859 0.9222 0.0239
vn -0.4133 0.8818 -0.2272
vn -0.2382 0.9498 0.2030
vn -0.2678 0.9633 -0.0205
vn -0.2842 0.9241 -0.2555
vn 0.0673 0.8742 -0.4809
vn -0.1414 0.5617 -0.8151
vn -0.0402 0.4034 -0.9142
vn -0.7131 -0.6919 0.1130
vn -0.2892 -0.8803 0.3760
vn -0.6437 -0.3917 0.6574
vn -0.6438 -0.7435 -0.1811
vn 0.2001 -0.3407 0.9186
vn 0.3382 -0.4533 0.8247
vn 0.4398 -0.3537 0.8255
vn -0.1413 0.9752 0.1703
vn -0.1574 0.9864 -0.0477
vn -0.2001 0.8942 0.4005
vn -0.1200 0.9219 0.3685
vn -0.0546 0.9585 -0.2799
vn 0.0689 -0.0219 0.9974
vn -0.1574 0.8089 0.5665
vn -0.2795 0.8488 0.4488
vn -0.5374 -0.2150 0.8154
vn -0.4398 -0.3537 0.8255
vn -0.2795 -0.2744 0.9201
vn -0.1200 -0.3829 0.9160
vn -0.2001 -0.3407 0.9186
vn -0.0953 -0.2004 0.9751
vn -0.0319 -0.2192 0.9752
vn 0.0319 -0.2192 0.9752
vn 0.0953 -0.2005 0.9751
vn 0.2167 -0.7660 -0.6052
vn -0.4239 -0.6871 -0.5900
vn 0.2382 -0.5206 0.8199
vn 0.4134 -0.7798 0.4701
vn 0.3859 -0.6290 0.6748
vn 0.2709 -0.7058 -0.6545
vn 0.4398 -0.8369 -0.3259
vn 0.5570 -0.8103 0.1820
vn 0.4770 -0.5636 -0.6744
vn 0.5160 0.8139 0.2671
vn 0.4133 -0.8818 0.2271
vn -0.6190 -0.5844 -0.5247
vn -0.7629 -0.5738 -0.2977
vn -0.5449 0.3071 -0.7803
vn 0.0054 -0.2787 -0.9604
vn -0.0205 -0.9997 0.0137
vn 0.3688 -0.4187 -0.8299
vn 0.3688 -0.2988 -0.8801
vn 0.3556 -0.7813 -0.5128
vn 0.3507 -0.5303 -0.7719
vn 0.4239 -0.6871 -0.5900
vn 0.3507 -0.1793 -0.9192
vn 0.5374 0.2150 -0.8154
vn 0.4239 0.0604 -0.9037
vn 0.4770 -0.0863 -0.8746
vn -0.4398 -0.8368 -0.3260
vn -0.9249 0.2963 0.2384
vn -0.5374 -0.7325 -0.4178
vn -0.0468 -0.5813 0.8124
vn -0.0400 -0.4034 0.9142
vn 0.1718 0.3957 -0.9022
vn -0.0519 0.9968 -0.0606
vn -0.0468 0.5813 -0.8124
vn -0.1661 0.8583 -0.4856
vn -0.1574 0.7251 -0.6704
vn -0.0519 0.7416 -0.6688
vn -0.1661 0.9478 -0.2722
vn 0.9191 -0.2559 -0.2997
vn 0.9083 -0.1796 0.3778
vn 0.3136 0.2884 0.9047
vn 0.1893 0.9046 0.3820
vn 0.5127 0.5342 -0.6721
vn 0.6438 0.3917 -0.6574
vn 0.3859 0.6290 -0.6748
vn 0.2842 0.8298 -0.4804
vn 0.4134 0.7798 -0.4701
vt 0.656250 0.434946
vt 0.663022 0.437500
vt 0.656250 0.437500
vt 0.593750 0.315474
vt 0.612845 0.375000
vt 0.593750 0.375000
vt 0.562500 0.244089
vt 0.584389 0.250000
vt 0.562500 0.250000
vt 0.437500 0.210306
vt 0.437500 0.250000
vt 0.406250 0.250000
vt 0.406250 0.203468
vt 0.375000 0.606392
vt 0.377118 0.625000
vt 0.375000 0.625000
vt 0.360530 0.687500
vt 0.343750 0.714573
vt 0.343750 0.687500
vt 0.322174 0.750000
vt 0.312500 0.771155
vt 0.312500 0.750000
vt 0.343750 0.587213
vt 0.343750 0.625000
vt 0.320734 0.625000
vt 0.312500 0.687500
vt 0.281250 0.750000
vt 0.281250 0.687500
vt 0.312500 0.635453
vt 0.281250 0.659736
vt 0.250000 0.750000
vt 0.250000 0.687500
vt 0.250000 0.669343
vt 0.118319 0.683056
vt 0.153563 0.705625
vt 0.156250 0.707508
vt 0.187500 0.731476
vt 0.211132 0.750000
vt 0.218750 0.757329
vt 0.250000 0.785992
vt 0.281250 0.810296
vt 0.284405 0.812500
vt 0.289348 0.817159
vt 0.695805 0.890935
vt 0.821005 0.781658
vt 0.843750 0.760450
vt 0.854616 0.750000
vt 0.875000 0.733957
vt 0.906145 0.709990
vt 0.074760 0.667315
vt 0.093750 0.672389
vt 0.093733 0.305863
vt 0.073172 0.312500
vt 0.062500 0.315276
vt 0.049209 0.316984
vt 0.485064 0.244491
vt 0.275561 0.196514
vt 0.875000 0.687500
vt 0.895555 0.687500
vt 0.880260 0.625000
vt 0.875000 0.625000
vt 0.878230 0.591437
vt 0.875000 0.590208
vt 0.843750 0.750000
vt 0.843750 0.687500
vt 0.843750 0.625000
vt 0.843750 0.562500
vt 0.844754 0.562500
vt 0.843750 0.561284
vt 0.812500 0.687500
vt 0.812500 0.625000
vt 0.812500 0.562500
vt 0.812500 0.502388
vt 0.675056 0.477160
vt 0.675088 0.440548
vt 0.759486 0.370490
vt 0.763645 0.375000
vt 0.781250 0.412478
vt 0.787209 0.437500
vt 0.787269 0.500000
vt 0.781250 0.526391
vt 0.765648 0.562500
vt 0.762337 0.566383
vt 0.686823 0.510794
vt 0.781250 0.362650
vt 0.782119 0.375000
vt 0.781250 0.375000
vt 0.779533 0.282480
vt 0.777973 0.312500
vt 0.777256 0.312500
vt 0.071953 0.437500
vt 0.071143 0.447481
vt 0.068870 0.437500
vt 0.093750 0.645471
vt 0.085468 0.625000
vt 0.084919 0.622731
vt 0.086629 0.375000
vt 0.093750 0.357758
vt 0.094241 0.356942
vt 0.234717 0.667357
vt 0.221266 0.687500
vt 0.218750 0.690187
vt 0.187500 0.706617
vt 0.156250 0.706982
vt 0.084786 0.625000
vt 0.062500 0.420756
vt 0.062500 0.375000
vt 0.375000 0.669499
vt 0.386882 0.657180
vt 0.809394 0.687500
vt 0.790371 0.625000
vt 0.781250 0.603296
vt 0.781250 0.562500
vt 0.820123 0.750000
vt 0.812500 0.705453
vt 0.291127 0.812500
vt 0.218750 0.750000
vt 0.375000 0.197645
vt 0.375000 0.201446
vt 0.373380 0.197401
vt 0.093257 0.312500
vt 0.374698 0.500000
vt 0.371487 0.562500
vt 0.354545 0.562500
vt 0.374431 0.500000
vt 0.388033 0.250000
vt 0.400584 0.312500
vt 0.392867 0.347398
vt 0.393634 0.312500
vt 0.386387 0.451236
vt 0.375000 0.498293
vt 0.375000 0.497311
vt 0.385224 0.440483
vt 0.442558 0.250000
vt 0.437500 0.253498
vt 0.629363 0.774596
vt 0.500213 0.650424
vt 0.525202 0.539201
vt 0.591649 0.413548
vt 0.593750 0.412870
vt 0.625000 0.419356
vt 0.649056 0.437500
vt 0.656250 0.444781
vt 0.045185 0.375000
vt 0.042868 0.386946
vt 0.811548 0.500000
vt 0.793622 0.437500
vt 0.779550 0.266858
vt 0.589137 0.251045
vt 0.531250 0.235220
vt 0.500000 0.226416
vt 0.468750 0.218022
vt 0.093750 0.335179
vt 0.500000 0.235657
vt 0.468750 0.237313
vt 0.531250 0.247195
vt 0.406250 0.298892
vt 0.534673 0.250000
vt 0.590045 0.375000
vt 0.575728 0.312500
vt 0.592969 0.312500
vt 0.562500 0.284124
vt 0.625000 0.397679
s 1
f 100/1/1 101/2/1 1/3/1
f 103/4/2 104/5/2 2/6/2
f 33/7/3 34/8/3 3/9/3
f 38/10/4 4/11/4 5/12/4 39/13/4
f 82/14/5 83/15/5 6/16/5
f 43/17/6 42/18/6 7/19/6
f 45/20/7 44/21/7 9/22/7
f 71/23/8 8/24/8 75/25/8
f 10/26/9 9/22/9 11/27/9 12/28/9
f 74/29/10 10/26/10 12/28/10 76/30/10
f 12/28/11 11/27/11 13/31/11 14/32/11
f 76/30/12 12/28/12 14/32/12 77/33/12
f 140/34/13 141/35/13 57/36/13 55/37/13 56/38/13 54/39/13 53/40/13 52/41/13 64/42/13 65/43/13 66/44/13 67/45/13 60/46/13 61/47/13 59/48/13 62/49/13 63/50/13 58/51/13
f 113/52/14 111/53/14 110/54/14 114/55/14 115/56/14 112/57/14
f 62/49/15 59/48/15 17/58/15 31/59/15
f 32/60/16 31/59/16 17/58/16 18/61/16
f 98/62/17 32/60/17 18/61/17 89/63/17
f 61/47/18 60/46/18 19/64/18
f 18/61/19 17/58/19 20/65/19 21/66/19
f 89/63/20 18/61/20 21/66/20 22/67/20 91/68/20
f 90/69/21 91/68/21 22/67/21
f 21/66/22 20/65/22 23/70/22 24/71/22
f 22/67/23 21/66/23 24/71/23 25/72/23
f 90/69/24 22/67/24 25/72/24 92/73/24
f 163/74/25 153/75/25 152/76/25 148/77/25 146/78/25 147/79/25 151/80/25 145/81/25 149/82/25 150/83/25 162/84/25
f 93/85/26 94/86/26 27/87/26
f 109/88/27 97/89/27 107/90/27
f 137/91/28 138/92/28 30/93/28
f 141/35/29 140/34/29 134/94/29 136/95/29 139/96/29 138/92/29 137/91/29 135/97/29 142/98/29 143/99/29 144/100/29 131/101/29 130/102/29 132/103/29 133/104/29
f 139/96/30 136/95/30 29/105/30
f 135/97/31 137/91/31 30/93/31 28/106/31 16/107/31
f 7/19/32 42/18/32 45/20/32 9/22/32 10/26/32
f 6/16/33 41/108/33 43/17/33 7/19/33 8/24/33
f 83/15/34 86/109/34 41/108/34 6/16/34
f 24/71/35 23/70/35 50/110/35 51/111/35
f 25/72/36 24/71/36 51/111/36 49/112/36 26/113/36
f 20/65/37 19/64/37 48/114/37 47/115/37 23/70/37
f 23/70/38 47/115/38 50/110/38
f 145/81/39 26/113/39 149/82/39
f 46/116/40 65/43/40 64/42/40
f 19/64/41 60/46/41 67/45/41 48/114/41
f 17/58/42 59/48/42 61/47/42 19/64/42 20/65/42
f 134/94/43 58/51/43 63/50/43 29/105/43 136/95/43
f 134/94/44 140/34/44 58/51/44
f 133/104/45 57/36/45 141/35/45
f 130/102/46 15/117/46 56/38/46 55/37/46 132/103/46
f 132/103/47 55/37/47 57/36/47 133/104/47
f 15/117/48 54/39/48 56/38/48
f 13/31/49 53/40/49 54/39/49 15/117/49
f 11/27/50 52/41/50 53/40/50 13/31/50
f 9/22/51 44/21/51 46/116/51 64/42/51 52/41/51 11/27/51
f 40/118/52 80/119/52 81/120/52
f 111/53/53 113/52/53 79/121/53
f 8/24/54 7/19/54 10/26/54 74/29/54 75/25/54
f 85/122/55 84/123/55 72/124/55 73/125/55
f 82/14/56 6/16/56 8/24/56 71/23/56 72/124/56 84/123/56
f 39/13/57 5/12/57 70/126/57 80/119/57 40/118/57
f 122/127/58 126/128/58 69/129/58
f 128/130/59 87/131/59 68/132/59 127/133/59
f 120/134/60 119/135/60 4/11/60
f 162/84/61 157/136/61 158/137/61 160/138/61 161/139/61 156/140/61 159/141/61 155/142/61 154/143/61 163/74/61
f 68/132/62 87/131/62 85/122/62 73/125/62
f 110/54/63 16/107/63 88/144/63 114/55/63
f 16/107/64 28/106/64 99/145/64 88/144/64
f 114/55/65 88/144/65 99/145/65 98/62/65 89/63/65 91/68/65 90/69/65 92/73/65 96/146/65 95/147/65 94/86/65 93/85/65 97/89/65 109/88/65 108/148/65 115/56/65
f 81/120/66 112/57/66 115/56/66 108/148/66 106/149/66 34/8/66 33/7/66 35/150/66 36/151/66 37/152/66 38/10/66 39/13/66 40/118/66
f 144/100/67 143/99/67 78/153/67 79/121/67 113/52/67 112/57/67 81/120/67 80/119/67 70/126/67 69/129/67 126/128/67 127/133/67 68/132/67 73/125/67 72/124/67 71/23/67 75/25/67 74/29/67 76/30/67 77/33/67
f 36/151/68 124/154/68 125/155/68 37/152/68
f 35/150/69 123/156/69 124/154/69 36/151/69
f 5/12/70 121/157/70 122/127/70 69/129/70 70/126/70
f 37/152/71 125/155/71 120/134/71 4/11/71 38/10/71
f 4/11/72 119/135/72 121/157/72 5/12/72
f 33/7/73 3/9/73 118/158/73 123/156/73 35/150/73
f 103/4/74 2/6/74 117/159/74 129/160/74 105/161/74
f 106/149/75 105/161/75 129/160/75 116/162/75 3/9/75 34/8/75
f 3/9/76 116/162/76 118/158/76
f 78/153/77 143/99/77 142/98/77
f 63/50/78 62/49/78 31/59/78 32/60/78 98/62/78 99/145/78 28/106/78 30/93/78 138/92/78 139/96/78 29/105/78
f 78/153/79 142/98/79 135/97/79 16/107/79 110/54/79 111/53/79 79/121/79
f 77/33/80 14/32/80 131/101/80 144/100/80
f 14/32/81 13/31/81 15/117/81 130/102/81 131/101/81
f 101/2/82 100/1/82 102/163/82 104/5/82 103/4/82 105/161/82 106/149/82 108/148/82 109/88/82 107/90/82 152/76/82 153/75/82
f 26/113/83 49/112/83 150/83/83 149/82/83
f 93/85/84 27/87/84 148/77/84 152/76/84 107/90/84 97/89/84
f 95/147/85 96/146/85 151/80/85 147/79/85
f 94/86/86 95/147/86 147/79/86 146/78/86 27/87/86
f 27/87/87 146/78/87 148/77/87
f 92/73/88 25/72/88 26/113/88 145/81/88 151/80/88 96/146/88
f 127/133/89 126/128/89 122/127/89 121/157/89 119/135/89 120/134/89 125/155/89 124/154/89 123/156/89 118/158/89 116/162/89 129/160/89 117/159/89 161/139/89 160/138/89 128/130/89
f 128/130/90 160/138/90 158/137/90 86/109/90 83/15/90 82/14/90 84/123/90 85/122/90 87/131/90
f 46/116/91 44/21/91 45/20/91 42/18/91 43/17/91 41/108/91 86/109/91 158/137/91 157/136/91 66/44/91 65/43/91
f 51/111/92 50/110/92 47/115/92 48/114/92 67/45/92 66/44/92 157/136/92 162/84/92 150/83/92 49/112/92
f 102/163/93 159/141/93 156/140/93 2/6/93 104/5/93
f 2/6/94 156/140/94 161/139/94 117/159/94
f 100/1/95 1/3/95 155/142/95 159/141/95 102/163/95
f 153/75/96 163/74/96 154/143/96 1/3/96 101/2/96
f 1/3/97 154/143/97 155/142/97
