# Blender 5.1.0
# www.blender.org
mtllib kamyk9.mtl
o Sphere.007
v -1.093540 0.985171 4.441479
v 1.168064 5.196783 0.114842
v 1.309156 5.201111 -0.260862
v 2.474284 4.684625 -0.654199
v 1.357367 5.205014 -0.651794
v 1.310841 5.208341 -1.042936
v 1.171370 5.210965 -1.419259
v -2.239841 2.139610 -5.434371
v -2.130741 3.122160 -4.950290
v -6.350088 3.049259 0.161371
v -5.569353 3.919646 0.044014
v -1.099421 2.058053 4.153303
v -6.604702 2.612899 0.198387
v -1.089390 0.281156 4.498601
v -0.571280 5.028604 1.551615
v -0.110928 5.107091 1.308611
v 0.774611 5.245256 0.371480
v 0.930878 5.264973 0.035156
v 1.034790 5.274903 -0.305090
v 1.088757 5.275423 -0.651721
v 1.092424 5.266393 -1.007613
v 1.042604 5.247131 -1.375940
v -5.317680 4.108823 0.005428
v -1.111568 4.934026 1.746569
v -1.873568 0.981010 4.377278
v -1.952145 0.223700 4.431848
v -2.247545 2.011817 -5.470556
v -2.631397 2.136341 -5.338712
v -1.086815 3.282618 -4.913884
v -1.221611 3.128354 -5.021076
v -1.650723 2.143624 -5.480239
v -1.689962 1.662604 -5.615623
v -0.965670 3.049706 3.667587
v 1.250359 5.154965 0.142285
v 1.057917 5.194572 0.281608
v 1.775307 4.978856 -0.186710
v 2.695368 4.525999 -0.655189
v 2.463932 4.683787 -0.570252
v 3.427160 3.983101 -0.890776
v -0.633318 2.061229 4.117013
v -0.666956 4.639011 2.213265
v -0.478884 4.802849 1.925200
v -0.076452 5.064174 1.375747
v 0.877190 5.212249 0.427087
v 0.565269 5.215476 0.698634
v 0.125202 5.146073 1.137207
v 3.519474 3.883986 -0.897523
v -1.270582 0.884776 -5.582580
v 1.858461 1.207960 -3.872514
v -0.649378 0.219032 4.469655
v -0.462872 0.989468 4.392377
v 3.258391 2.157921 0.626311
v -0.265165 1.447111 4.254232
v -2.683891 3.117542 -4.815152
v -5.587790 3.920964 -0.110955
v -6.383827 3.051672 -0.122273
v -6.616028 2.688722 -0.256175
v -5.362247 4.095147 -0.193850
v -5.763191 0.798066 -3.613399
v -3.229307 2.274768 -5.118021
v -1.000292 3.049470 3.670283
v -6.188341 3.046216 0.597790
v -5.489069 3.918135 0.260635
v -1.103487 2.869344 3.764395
v -6.494511 2.230987 1.119091
v -1.110897 4.649162 2.225667
v -1.471151 4.869600 1.822086
v -5.177656 4.141460 0.252708
v -1.717962 2.054754 4.102393
v -6.157301 1.241569 2.171931
v -2.120436 1.709813 4.161183
v -1.094645 4.636097 2.246562
v -0.901684 4.094802 2.827580
v -0.967957 3.224999 3.538129
v 2.322615 4.729288 -1.208305
v 2.415197 4.688851 -1.150966
v 3.425443 3.983224 -0.905221
v 1.787102 4.902349 -1.627382
v 1.413820 4.951925 -2.021619
v 3.511987 3.887557 -0.934781
v 2.772117 3.137886 -2.934708
v 1.334719 4.995875 -1.978602
v 1.033869 5.212067 -1.629416
v -1.089058 3.571025 -4.692355
v -2.023207 3.739788 -4.485219
v 0.976955 5.228725 -1.605667
v -0.748768 3.565667 -4.669863
v -2.649616 4.514932 -3.190907
v -2.394331 3.874571 -4.284700
v 1.165943 4.109962 -3.540664
v 1.389874 4.947603 -2.057694
v -2.113831 0.129164 4.361624
v -1.330450 0.232452 -5.376657
v 1.561651 0.267311 -3.698632
v 2.651875 0.243290 0.970134
v -0.617983 0.154589 4.426245
v -5.515631 0.142738 -3.539762
v -5.728670 0.083112 2.533796
vn 0.1938 0.9580 0.2112
vn 0.3689 0.8937 0.2555
vn 0.2429 0.9646 0.1023
vn 0.5813 0.8097 0.0798
vn 0.2534 0.9665 0.0409
vn 0.2535 0.9671 -0.0219
vn 0.5801 0.6686 -0.4652
vn 0.2433 0.9663 -0.0834
vn 0.0465 0.8667 -0.4966
vn 0.0619 0.6083 -0.7913
vn -0.0725 0.4473 -0.8915
vn -0.5915 0.8026 0.0772
vn -0.7349 0.6718 0.0931
vn -0.4096 0.5957 0.6910
vn -0.0466 0.8586 0.5106
vn -0.0806 0.2581 0.9627
vn -0.8549 0.5078 0.1060
vn -0.0822 0.0801 0.9934
vn -0.0763 0.4307 0.8993
vn 0.0174 -0.9998 -0.0092
vn -0.2302 0.2779 -0.9326
vn -0.0765 0.2759 -0.9581
vn -0.0658 0.6075 -0.7916
vn 0.1891 0.8685 0.4581
vn 0.1133 0.8625 0.4932
vn 0.0473 0.7386 0.6724
vn 0.4216 0.9047 0.0610
vn 0.2228 0.9617 0.1599
vn 0.4036 0.9005 0.1619
vn 0.0585 0.5936 0.8026
vn 0.0671 0.4316 0.8996
vn 0.4526 0.2072 -0.8673
vn 0.0732 0.2591 0.9631
vn -0.0259 -0.5672 0.8232
vn 0.0768 0.0811 0.9937
vn -0.2154 0.4507 -0.8663
vn -0.1926 0.6114 -0.7675
vn 0.5749 0.4909 0.6546
vn -0.1817 0.9830 -0.0268
vn 0.0339 0.8591 0.5107
vn -0.5655 0.7962 0.2151
vn -0.7000 0.6635 0.2641
vn -0.8113 0.4992 0.3042
vn 0.3212 0.8913 -0.3200
vn 0.7266 0.6823 -0.0806
vn 0.5816 0.8111 -0.0623
vn 0.4219 0.9057 -0.0425
vn 0.4042 0.9033 -0.1435
vn -0.6378 0.5905 -0.4945
vn 0.2234 0.9645 -0.1411
vn 0.3700 0.8982 -0.2374
vn -0.9335 -0.3567 -0.0362
vn 0.7236 -0.1068 0.6819
vn 0.9189 -0.3299 -0.2163
vn 0.4809 -0.3038 -0.8225
vn -0.3852 -0.2455 -0.8896
vn -0.4496 0.1105 0.8864
vt 0.624327 0.119657
vt 0.593750 0.121126
vt 0.593750 0.114751
vt 0.577561 0.125000
vt 0.562500 0.129987
vt 0.562500 0.125000
vt 0.562500 0.111736
vt 0.531250 0.125000
vt 0.531250 0.110551
vt 0.504622 0.187500
vt 0.500000 0.201593
vt 0.500000 0.187500
vt 0.500000 0.125000
vt 0.500000 0.111130
vt 0.468750 0.125000
vt 0.468750 0.113506
vt 0.340134 0.237128
vt 0.403694 0.157077
vt 0.406250 0.156543
vt 0.437500 0.162258
vt 0.468750 0.182702
vt 0.472662 0.187500
vt 0.489336 0.250000
vt 0.488223 0.256974
vt 0.404014 0.305528
vt 0.437500 0.125000
vt 0.437500 0.117810
vt 0.406250 0.151228
vt 0.261967 0.280860
vt 0.250000 0.280337
vt 0.218750 0.267587
vt 0.204671 0.257546
vt 0.274014 0.201760
vt 0.418811 0.121684
vt 0.418576 0.125000
vt 0.250000 0.301336
vt 0.245934 0.312500
vt 0.234603 0.375000
vt 0.218750 0.375000
vt 0.218750 0.312500
vt 0.977875 0.234845
vt 0.975451 0.250000
vt 0.968750 0.250000
vt 0.968750 0.233502
vt 0.979180 0.312500
vt 0.968750 0.312500
vt 0.741680 0.234813
vt 0.749274 0.187500
vt 0.750000 0.185962
vt 0.768104 0.160011
vt 0.956295 0.230501
vt 0.959015 0.250000
vt 0.952070 0.312500
vt 0.937620 0.363734
vt 0.901437 0.421892
vt 0.777147 0.394969
vt 0.766651 0.375000
vt 0.750000 0.323819
vt 0.746887 0.312500
vt 0.745758 0.299913
vt 0.750000 0.152716
vt 0.769780 0.437500
vt 0.750000 0.437500
vt 0.750000 0.375000
vt 0.984711 0.335487
vt 0.968750 0.340030
vt 0.771589 0.479970
vt 0.750000 0.477004
vt 0.179935 0.492019
vt 0.261984 0.485980
vt 0.381001 0.482955
vt 0.577443 0.486097
vt 0.737569 0.484977
vt 0.775947 0.485590
vt 0.866449 0.488825
vt 0.218750 0.382480
vt 0.207796 0.375000
vt 0.233582 0.403149
vt 0.687500 0.133402
vt 0.687500 0.138442
vt 0.668271 0.129139
vt 0.718750 0.142108
vt 0.718750 0.168529
vt 0.730135 0.187500
vt 0.531250 0.151603
vt 0.745852 0.312500
vt 0.737457 0.375000
vt 0.366713 0.422572
vt 0.247906 0.447701
vt 0.734013 0.437500
vt 0.728629 0.410920
vt 0.739028 0.480658
vt 0.190167 0.365869
vt 0.201555 0.312500
vt 0.545441 0.361082
vt 0.489817 0.257210
vt 0.489961 0.250000
vt 0.140884 0.452407
vt 0.473950 0.335487
s 0
f 45/1/1 44/2/1 17/3/1
f 35/4/2 34/5/2 2/6/2
f 18/7/3 2/6/3 3/8/3 19/9/3
f 38/10/4 37/11/4 4/12/4
f 19/9/5 3/8/5 5/13/5 20/14/5
f 20/14/6 5/13/6 6/15/6 21/16/6
f 90/17/7 91/18/7 79/19/7 78/20/7 75/21/7 76/22/7 77/23/7 80/24/7 81/25/7
f 21/16/8 6/15/8 7/26/8 22/27/8
f 82/28/9 91/18/9 90/17/9 87/29/9 84/30/9 85/31/9 89/32/9 88/33/9 86/34/9 83/35/9
f 87/29/10 29/36/10 84/30/10
f 30/37/11 31/38/11 8/39/11 9/40/11
f 58/41/12 55/42/12 11/43/12 23/44/12
f 55/42/13 56/45/13 10/46/13 11/43/13
f 73/47/14 72/48/14 66/49/14 67/50/14 68/51/14 63/52/14 62/53/14 65/54/14 70/55/14 71/56/14 69/57/14 64/58/14 61/59/14 74/60/14
f 67/50/15 66/49/15 24/61/15
f 71/56/16 25/62/16 1/63/16 12/64/16 69/57/16
f 56/45/17 57/65/17 13/66/17 10/46/17
f 25/62/18 26/67/18 14/68/18 1/63/18
f 64/58/19 69/57/19 12/64/19
f 97/69/20 93/70/20 94/71/20 95/72/20 96/73/20 92/74/20 98/75/20
f 8/39/21 27/76/21 28/77/21
f 31/38/22 32/78/22 27/76/22 8/39/22
f 84/30/23 29/36/23 30/37/23 9/40/23 85/31/23
f 16/79/24 43/80/24 46/81/24
f 15/82/25 42/83/25 43/80/25 16/79/25
f 72/48/26 73/47/26 41/84/26
f 3/8/27 36/85/27 38/10/27 4/12/27 5/13/27
f 17/3/28 44/2/28 35/4/28 2/6/28 18/7/28
f 2/6/29 34/5/29 36/85/29 3/8/29
f 74/60/30 61/59/30 33/86/30
f 64/58/31 12/64/31 40/87/31 33/86/31 61/59/31
f 90/17/32 81/25/32 49/88/32 48/89/32 32/78/32 31/38/32 30/37/32 29/36/32 87/29/32
f 12/64/33 1/63/33 51/90/33 53/91/33 40/87/33
f 92/74/34 96/73/34 50/92/34 14/68/34 26/67/34
f 1/63/35 14/68/35 50/92/35 51/90/35
f 9/40/36 8/39/36 28/77/36 60/93/36 54/94/36
f 85/31/37 9/40/37 54/94/37 89/32/37
f 33/86/38 40/87/38 53/91/38 52/95/38 47/96/38 39/97/38 37/11/38 38/10/38 36/85/38 34/5/38 35/4/38 44/2/38 45/1/38 46/81/38 43/80/38 42/83/38 41/84/38 73/47/38 74/60/38
f 86/34/39 88/33/39 58/41/39 23/44/39 68/51/39 67/50/39 24/61/39 15/82/39 16/79/39 46/81/39 45/1/39 17/3/39 18/7/39 19/9/39 20/14/39 21/16/39 22/27/39
f 24/61/40 66/49/40 72/48/40 41/84/40 42/83/40 15/82/40
f 23/44/41 11/43/41 63/52/41 68/51/41
f 11/43/42 10/46/42 62/53/42 63/52/42
f 10/46/43 13/66/43 65/54/43 62/53/43
f 82/28/44 79/19/44 91/18/44
f 39/97/45 47/96/45 80/24/45 77/23/45
f 4/12/46 37/11/46 39/97/46 77/23/46 76/22/46
f 5/13/47 4/12/47 76/22/47 75/21/47 6/15/47
f 6/15/48 75/21/48 78/20/48 7/26/48
f 59/98/49 57/99/49 56/45/49 55/42/49 58/41/49 88/33/49 89/32/49 54/94/49 60/93/49
f 22/27/50 7/26/50 83/35/50 86/34/50
f 7/26/51 78/20/51 79/19/51 82/28/51 83/35/51
f 59/98/52 97/69/52 98/75/52 70/55/52 65/54/52 13/66/52 57/99/52
f 51/90/53 50/92/53 96/73/53 95/72/53 52/95/53 53/91/53
f 81/25/54 80/24/54 47/96/54 52/95/54 95/72/54 94/71/54 49/88/54
f 48/89/55 49/88/55 94/71/55 93/70/55
f 28/77/56 27/76/56 32/78/56 48/89/56 93/70/56 97/69/56 59/98/56 60/93/56
f 71/56/57 70/55/57 98/75/57 92/74/57 26/67/57 25/62/57
