# Blender 5.1.0
# www.blender.org
mtllib kamyk10.mtl
o Sphere.009
v -5.644587 7.728624 8.806205
v -3.923589 0.860518 -8.018725
v -3.770839 0.694290 -7.917923
v 4.233346 2.126066 -9.184653
v 3.482498 0.860518 -8.673994
v -3.354254 0.696301 -8.607729
v 3.311348 0.696301 -8.607730
v -3.525403 0.860518 -8.673993
v 4.821756 2.411053 -8.439518
v 3.875899 0.693575 -7.672914
v 4.664807 2.126066 -8.474627
v 3.967838 0.860518 -7.875301
v -6.036970 7.728624 7.334189
v -6.042511 7.934958 6.846523
v 2.737227 0.637175 11.672584
v -4.564093 1.557537 -7.926480
v -3.860760 1.425760 -8.902073
v -6.127247 7.848050 -0.610208
v -6.184739 3.321180 -5.669464
v -6.180873 3.316974 -5.683851
v -3.210390 6.122727 -9.804199
v 4.511465 3.331788 -9.671171
v 4.935989 2.943608 -8.668577
v 5.088728 2.895818 -8.249779
v -5.275598 8.558877 8.311819
v 5.241001 7.924120 9.358768
v 4.162512 9.200951 7.560803
v -5.226021 8.772383 8.014698
v -3.728070 0.647744 8.047171
v 2.139193 0.637136 11.685972
v -5.768179 7.238612 8.971798
v -6.018744 6.532917 8.938026
v -5.559729 7.728624 9.013542
v -0.820505 6.141948 11.752234
v -5.341532 7.999475 9.091277
v -1.501742 3.461839 11.767487
v -3.819873 10.214587 3.000542
v -4.270812 9.752086 6.662486
v 1.063389 10.406166 5.831758
v 2.753908 9.748743 -5.603742
v 5.165516 8.013488 -4.789008
v 4.162512 9.200953 -3.985080
v 3.847300 0.641643 10.140018
v 2.797867 0.637363 11.607941
v 2.756145 0.647865 11.672160
v -3.763105 9.254284 -4.839502
v -4.699889 9.312008 -2.457090
v -3.819873 10.214588 1.115178
v -0.971798 10.933022 -0.699505
v -0.528340 11.025173 -1.101758
v -0.051634 10.839787 -3.261504
v -2.767548 5.183773 -10.418464
v -2.965280 5.939739 -10.144191
v 4.012885 4.747025 -10.242232
v 3.779695 7.377128 -9.265169
v 3.612332 7.542513 -9.211396
v 5.369022 7.772555 9.300804
v 5.795748 7.267351 8.670503
v 4.250805 6.279091 11.638697
v 5.252234 7.827620 9.493576
v 4.445139 4.888371 11.634345
v 5.834354 4.249716 9.337339
v 5.928456 7.110237 8.374409
v 6.320142 5.131805 -3.216361
v 6.243204 6.737606 -2.427458
v 5.999241 4.549116 8.973318
v 5.928271 7.014419 8.498147
v -6.075358 3.202147 3.956012
v -5.165377 2.211873 8.452137
v -5.376925 3.824635 9.659519
v -6.017991 6.064172 9.004337
vn 0.8639 0.1192 0.4893
vn -0.8704 0.3399 0.3562
vn -0.5748 -0.7400 -0.3493
vn -0.6947 -0.5825 -0.4221
vn -0.7806 0.5372 0.3195
vn 0.6947 -0.5825 -0.4221
vn 0.5748 -0.7400 -0.3493
vn -0.9174 0.3140 0.2445
vn 0.4531 -0.7849 0.4227
vn -0.2446 0.9696 -0.0000
vn -0.0000 -0.3742 -0.9274
vn -0.3324 0.9306 -0.1532
vn 0.8704 -0.3399 -0.3562
vn 0.7916 -0.3767 -0.4810
vn -0.1037 0.9883 0.1120
vn 0.7806 0.5372 0.3195
vn -0.8348 0.5035 0.2225
vn -0.4315 -0.5762 0.6941
vn -0.7160 0.6981 -0.0000
vn 0.9990 0.0341 0.0279
vn 0.0224 -0.0000 0.9997
vn -0.0000 -1.0000 -0.0029
vn 0.3624 0.9320 -0.0000
vn -0.8514 0.3957 -0.3444
vn -0.1264 0.8326 -0.5393
vn 0.6217 0.7253 -0.2956
vn -0.8112 -0.0000 -0.5848
vn 0.0469 0.3515 -0.9350
vn 0.7754 -0.3039 0.5535
vn -0.0089 0.8128 0.5825
vn 0.9174 0.3140 0.2445
vn 0.7639 0.6453 -0.0000
vn 0.9277 0.1995 -0.3156
vn 0.8759 -0.4824 -0.0000
vn -0.4653 0.1233 0.8765
vn -0.9618 -0.2334 0.1432
vn -0.7363 -0.6766 -0.0000
vn -0.9999 -0.0000 0.0114
vt 0.413148 0.592494
vt 0.409911 0.604006
vt 0.398230 0.627170
vt 0.394674 0.629889
vt 0.354827 0.559159
vt 0.361853 0.495391
vt 0.403294 0.468926
vt 0.408931 0.482464
vt 0.093750 0.602698
vt 0.096903 0.625000
vt 0.093750 0.625000
vt 0.859134 0.303134
vt 0.861392 0.312500
vt 0.847901 0.312500
vt 0.844659 0.303247
vt 0.874168 0.346923
vt 0.852823 0.340415
vt 0.100538 0.638376
vt 0.093750 0.666003
vt 0.652099 0.312500
vt 0.641078 0.375000
vt 0.627922 0.375000
vt 0.635655 0.312500
vt 0.655340 0.303247
vt 0.635725 0.303094
vt 0.074130 0.625000
vt 0.090185 0.570578
vt 0.329650 0.299927
vt 0.328236 0.300518
vt 0.327796 0.299916
vt 0.561756 0.807440
vt 0.509223 0.757631
vt 0.398434 0.757631
vt 0.653259 0.492005
vt 0.639699 0.429877
vt 0.818765 0.509875
vt 0.581646 0.813905
vt 0.637845 0.802243
vt 0.791353 0.709015
vt 0.736526 0.709152
vt 0.625000 0.387971
vt 0.625000 0.412210
vt 0.619295 0.410035
vt 0.179302 0.731628
vt 0.386097 0.774966
vt 0.395629 0.634655
vt 0.091484 0.676547
vt 0.069267 0.635190
vt 0.111397 0.450884
vt 0.143053 0.376216
vt 0.234799 0.300511
vt 0.310961 0.299914
vt 0.217976 0.429988
vt 0.657121 0.630898
vt 0.545719 0.580731
vt 0.414295 0.596855
vt 0.551966 0.508857
vt 0.230939 0.553157
vt 0.364458 0.300168
vt 0.625946 0.733610
vt 0.406300 0.699151
vt 0.578331 0.699151
vt 0.911902 0.429395
vt 0.831952 0.552332
vt 0.912318 0.429198
vt 0.650414 0.620001
vt 0.824570 0.544032
vt 0.585359 0.641847
vt 0.648699 0.611342
vt 0.090835 0.550003
vt 0.360021 0.423977
s 0
f 67/1/1 58/2/1 57/3/1 60/4/1 59/5/1 61/6/1 62/7/1 66/8/1
f 31/9/2 33/10/2 1/11/2
f 3/12/3 2/13/3 8/14/3 6/15/3
f 16/16/4 17/17/4 8/14/4 2/13/4
f 35/18/5 25/19/5 1/11/5 33/10/5
f 5/20/6 4/21/6 11/22/6 12/23/6
f 7/24/7 5/20/7 12/23/7 10/25/7
f 31/9/8 1/11/8 13/26/8 32/27/8
f 44/28/9 45/29/9 15/30/9
f 49/31/10 48/32/10 37/33/10
f 54/34/11 22/35/11 4/21/11 5/20/11 7/24/11 6/15/11 8/14/11 17/17/11 52/36/11
f 50/37/12 51/38/12 46/39/12 47/40/12 48/32/12 49/31/12
f 9/41/13 23/42/13 24/43/13
f 4/21/14 22/35/14 23/42/14 9/41/14 11/22/14
f 49/31/15 37/33/15 38/44/15 39/45/15 50/37/15
f 57/3/16 26/46/16 60/4/16
f 1/11/17 25/19/17 28/47/17 14/48/17 13/26/17
f 70/49/18 69/50/18 29/51/18 30/52/18 36/53/18
f 47/40/19 18/54/19 14/48/19 28/47/19 38/44/19 37/33/19 48/32/19
f 65/55/20 63/56/20 67/1/20 66/8/20 64/57/20
f 59/5/21 34/58/21 36/53/21 30/52/21 15/30/21 45/29/21 61/6/21
f 10/25/22 43/59/22 44/28/22 15/30/22 30/52/22 29/51/22 3/12/22 6/15/22 7/24/22
f 40/60/23 51/38/23 50/37/23 39/45/23 27/61/23 42/62/23
f 19/63/24 18/54/24 47/40/24 46/39/24 21/64/24 20/65/24
f 56/66/25 53/67/25 21/64/25 46/39/25 51/38/25 40/60/25
f 41/68/26 55/69/26 56/66/26 40/60/26 42/62/26
f 21/64/27 53/67/27 52/36/27 17/17/27 16/16/27 20/65/27
f 53/67/28 56/66/28 55/69/28 54/34/28 52/36/28
f 45/29/29 44/28/29 43/59/29 62/7/29 61/6/29
f 27/61/30 39/45/30 38/44/30 28/47/30 25/19/30 35/18/30 34/58/30 59/5/30 60/4/30 26/46/30
f 63/56/31 58/2/31 67/1/31
f 63/56/32 65/55/32 41/68/32 42/62/32 27/61/32 26/46/32 57/3/32 58/2/32
f 54/34/33 55/69/33 41/68/33 65/55/33 64/57/33 24/43/33 23/42/33 22/35/33
f 11/22/34 9/41/34 24/43/34 64/57/34 66/8/34 62/7/34 43/59/34 10/25/34 12/23/34
f 32/27/35 71/70/35 70/49/35 36/53/35 34/58/35 35/18/35 33/10/35 31/9/35
f 68/71/36 69/50/36 70/49/36 71/70/36
f 20/65/37 16/16/37 2/13/37 3/12/37 29/51/37 69/50/37 68/71/37 19/63/37
f 18/54/38 19/63/38 68/71/38 71/70/38 32/27/38 13/26/38 14/48/38
