# Blender 5.1.0
# www.blender.org
mtllib kamyk2.mtl
o Sphere.004
v -0.295716 2.042603 -0.486976
v -0.295716 1.332673 0.580355
v -0.396719 1.332673 0.913315
v -0.469838 3.519207 1.280910
v -0.439146 2.780905 1.301419
v -0.469838 2.042603 1.280910
v -0.781470 4.229137 1.489136
v -0.704166 3.519207 1.566440
v -0.678065 2.780905 1.592542
v -2.382785 1.332673 1.974889
v -2.757582 2.042603 1.974889
v -2.715745 1.332673 1.873887
v -3.083340 3.519207 1.800768
v -3.103849 2.780905 1.831460
v -3.083340 2.042603 1.800768
v -3.022603 1.332673 1.709868
v -3.291566 4.229137 1.489136
v -3.368870 3.519207 1.566439
v -3.394972 2.780905 1.592541
v -3.368870 2.042603 1.566439
v -3.512298 4.229137 1.220173
v -3.603198 3.519207 1.280910
v -3.633891 2.780905 1.301417
v -3.603198 2.042603 1.280910
v -3.777319 2.042603 0.955151
v -2.923970 4.883412 -1.094079
v -3.103847 2.780905 -1.363284
v -3.083339 2.042603 -1.332592
v -3.022603 1.332673 -1.241692
v -2.757581 2.042603 -1.506713
v -2.715745 1.332673 -1.405711
v -2.382785 1.332673 -1.506713
v -2.036518 1.332673 -1.540817
v -2.915440 4.920269 -1.081312
v -2.652529 4.837923 -1.253095
v -2.804009 4.883412 -1.158199
v -0.507787 3.815593 1.255553
v -0.787956 4.262939 1.482650
v -0.766786 4.229137 1.471243
v -1.069652 4.712727 1.556708
v -2.986661 1.094252 1.656077
v -3.300237 1.412308 1.497807
v -3.221724 1.332673 1.546453
v -3.555667 1.671387 1.249151
v -3.752979 1.871517 0.945069
v -3.300237 1.412308 -1.029631
v -2.986660 1.094252 -1.187901
v -3.221724 1.332673 -1.078277
v -2.656180 0.759050 -1.261910
v -2.576664 0.678398 -1.263272
v -1.685899 1.477551 -1.528595
v -1.333054 1.743955 -1.464225
v -0.998278 1.942284 -1.319747
v -0.300767 2.007101 -0.484883
v -0.301151 1.312254 0.579274
v -0.293533 1.332673 0.558188
v -2.353753 0.784257 -1.360763
v -2.036518 1.145999 -1.490165
v -1.846823 1.332673 -1.522135
v -2.434312 0.678398 -1.306454
v -2.424718 0.524281 -1.057461
v -2.491859 0.592381 -1.251730
v -0.876482 2.780905 1.755379
v -0.950362 4.229137 1.627742
v -0.847752 3.519207 1.684277
v -2.389230 1.547184 2.007288
v -2.109689 1.332673 2.001787
v -2.760358 2.187697 1.981591
v -2.707076 2.042603 1.990210
v -2.944785 3.519207 1.874827
v -2.901872 2.780905 1.939419
v -2.852832 4.229137 1.800612
v -2.850260 4.236674 1.799679
v -1.101269 4.658405 1.601632
v -0.998424 2.042603 -1.337258
v -0.293037 2.100614 -0.488086
v -1.299036 5.078986 -0.750208
v -0.990588 2.032174 -1.331257
v -0.327846 2.042603 -0.547087
v -0.343249 2.025807 -0.570443
v -0.911046 1.976199 -1.254881
v -3.784533 2.198769 0.958139
v -3.764415 2.780905 1.057223
v -3.710775 3.519207 1.079647
v -3.631071 4.229137 0.997964
v -3.787350 2.042603 0.922086
v -3.020707 4.241710 -1.238856
v -3.103062 2.809162 -1.362109
v -3.032474 4.883412 -1.005032
v -3.105369 2.780905 -1.362035
v -3.198995 2.042603 -1.237676
v -3.020671 4.229137 -1.242725
v -3.048580 3.519207 -1.351171
v -3.041157 4.986843 -0.942431
v -3.303432 1.441651 -1.032826
v -3.308121 1.420304 -1.021956
v -3.782679 1.901642 0.863065
v -1.313839 2.042603 -1.505851
v -2.709148 4.292671 -1.389784
v -2.764507 2.404627 -1.523436
v -2.848784 2.780905 -1.499618
v -2.393759 1.697958 -1.561883
v -2.631932 2.042603 -1.544828
v -2.036518 1.493641 -1.565606
v -2.389680 4.793723 -1.345302
v -1.682138 1.602715 -1.547499
v -1.315679 2.038791 -1.506171
v -1.714079 4.803632 -1.324631
v -1.217516 2.427569 -1.476085
v -2.735759 4.229137 -1.395013
v -2.866458 3.519207 -1.448517
v -0.230916 2.042603 -0.273356
v -0.280622 1.432616 0.583357
v -0.326229 1.828135 0.942513
v -0.384274 2.780905 1.198760
v -0.409784 3.519207 1.168557
v -0.342988 2.042603 1.043590
v -0.411544 3.661920 1.125453
v -0.269082 1.423445 0.451852
v -0.231830 1.872751 -0.186699
v -0.303258 3.489019 -0.069726
v -0.236530 2.349244 -0.344427
v -3.023119 4.223098 1.710641
v -3.285454 4.260994 1.483023
v -3.069391 4.229137 1.671470
v -3.481920 4.363785 1.199875
v -1.507560 5.411937 0.893773
v -2.952345 4.229137 1.747422
v -2.852782 4.238564 1.797753
v -1.655955 5.648880 0.438663
v -3.225913 5.365931 -0.151605
v -3.588268 4.501812 0.921843
v -0.490568 1.880700 1.267059
v -0.683952 2.614369 1.586654
v -0.494124 2.042603 1.310503
v -0.883170 2.749844 1.758869
v -0.420342 1.332673 0.957511
v -2.374445 1.175125 1.932961
v -2.675642 0.946462 1.777068
v -2.760212 0.864568 1.706789
v -0.402697 1.308826 0.910839
v -2.415055 0.514480 0.968217
v -1.390723 0.517530 0.337713
v -0.374223 1.174689 0.692191
v -2.107403 1.331484 2.001689
v -1.602277 1.499455 1.940208
v -0.517697 1.436464 1.173391
vn 0.0946 -0.2607 -0.9608
vn 0.0295 0.0697 -0.9971
vn 0.8808 -0.0497 -0.4708
vn 0.9957 0.0379 0.0847
vn 0.9837 -0.1515 0.0969
vn 0.9608 -0.2607 0.0946
vn 0.8808 -0.0497 0.4708
vn 0.8717 0.1515 0.4660
vn 0.7463 0.2607 0.6125
vn 0.7721 0.0497 0.6336
vn 0.7641 -0.1515 0.6271
vn -0.0969 -0.1515 0.9837
vn -0.2899 -0.0497 0.9558
vn -0.4551 -0.2607 0.8514
vn -0.4708 0.0497 0.8808
vn -0.4660 -0.1515 0.8717
vn -0.6336 0.0497 0.7721
vn -0.6336 -0.0497 0.7721
vn -0.6125 -0.2607 0.7463
vn -0.7641 0.1515 0.6271
vn -0.7721 0.0497 0.6336
vn -0.7721 -0.0497 0.6336
vn -0.7641 -0.1515 0.6271
vn -0.8717 -0.1515 0.4660
vn -0.7641 -0.1515 -0.6271
vn -0.6125 0.2607 -0.7463
vn -0.6336 0.0497 -0.7720
vn -0.6336 -0.0497 -0.7721
vn -0.6125 -0.2607 -0.7463
vn -0.4660 -0.1515 -0.8717
vn -0.4551 -0.2607 -0.8514
vn -0.2681 -0.3830 -0.8840
vn -0.0946 -0.2607 -0.9608
vn -0.2802 0.2607 -0.9238
vn -0.4355 0.3830 -0.8147
vn -0.5860 0.3830 -0.7141
vn -0.6125 0.2607 0.7463
vn -0.3367 0.7858 0.5189
vn 0.7641 0.1515 0.6271
vn 0.8808 0.0497 0.4708
vn -0.6271 -0.1515 0.7641
vn -0.2802 -0.2607 0.9238
vn -0.0000 -1.0000 -0.0048
vn -0.2802 -0.2607 -0.9238
vn -0.4708 -0.0497 0.8808
vn -0.2869 -0.1515 0.9459
vn -0.0946 -0.2607 0.9608
vn 0.6271 0.1515 0.7641
vn 0.6125 0.2607 0.7463
vn 0.6336 0.0497 0.7721
vn 0.6336 -0.0497 0.7721
vn 0.8717 -0.1515 -0.4660
vn 0.6271 -0.1515 -0.7641
vn 0.4708 -0.0497 -0.8808
vn 0.3254 -0.7865 0.5249
vn -0.6271 -0.1515 -0.7641
vn -0.9459 -0.1515 0.2869
vn -0.8717 0.1515 0.4660
vn -0.8808 0.0497 0.4708
vn -0.8808 -0.0497 0.4708
vn -0.9558 -0.0497 0.2899
vn -0.4660 0.1515 -0.8717
vn 0.7476 0.1967 -0.6344
vn 0.2869 -0.1515 -0.9459
vn -0.0000 0.9017 -0.4323
vn 0.0969 -0.1515 -0.9837
vn -0.2869 -0.1515 -0.9459
vn -0.0969 -0.1515 -0.9837
vn -0.4708 0.0497 -0.8808
vn -0.4708 -0.0497 -0.8808
vn -0.2899 -0.0497 -0.9558
vn -0.4551 0.2607 -0.8514
vn 0.4660 -0.1515 -0.8717
vn 0.9459 -0.1515 0.2869
vn 0.9459 -0.1515 -0.2869
vn 0.9558 -0.0497 -0.2899
vn -0.9619 0.0778 -0.2620
vn -0.4551 0.2607 0.8514
vn 0.8475 0.5308 -0.0000
vn -0.0748 0.6610 0.7466
vn -0.8514 0.2607 0.4551
vn -0.7463 0.2607 0.6125
vn -0.6271 0.1515 0.7641
vn -0.4660 0.1515 0.8717
vn 0.7721 -0.0497 0.6336
vn 0.8514 -0.2607 0.4551
vn 0.5573 -0.2038 0.8049
vn 0.0901 0.0920 0.9917
vn 0.5907 -0.6757 -0.4410
vn 0.9238 -0.2607 0.2802
vn -0.7121 -0.7021 -0.0000
vn 0.8717 -0.1515 0.4660
vt 0.750000 0.357168
vt 0.750000 0.375000
vt 0.732880 0.375000
vt 0.687500 0.437164
vt 0.718750 0.398774
vt 0.750000 0.389171
vt 0.781250 0.407158
vt 0.801391 0.437500
vt 0.812500 0.468147
vt 0.819752 0.500000
vt 0.822944 0.562500
vt 0.814538 0.625000
vt 0.812500 0.631069
vt 0.785056 0.678932
vt 0.712872 0.680111
vt 0.678811 0.470089
vt 0.687345 0.437500
vt 0.568266 0.437500
vt 0.562500 0.442411
vt 0.562500 0.437500
vt 0.543614 0.437500
vt 0.549605 0.463458
vt 0.526094 0.561912
vt 0.419992 0.575064
vt 0.417028 0.562500
vt 0.415909 0.500000
vt 0.429016 0.437500
vt 0.437500 0.418619
vt 0.468750 0.383799
vt 0.480347 0.382991
vt 0.536419 0.422547
vt 0.468750 0.375000
vt 0.470750 0.375000
vt 0.468750 0.373049
vt 0.406250 0.500000
vt 0.406250 0.437500
vt 0.406250 0.588593
vt 0.406250 0.562500
vt 0.377079 0.625000
vt 0.375000 0.628229
vt 0.375000 0.625000
vt 0.375000 0.562500
vt 0.375000 0.500000
vt 0.406250 0.423247
vt 0.403011 0.437500
vt 0.243396 0.375000
vt 0.218750 0.393885
vt 0.218750 0.375000
vt 0.191965 0.437500
vt 0.187500 0.449783
vt 0.187500 0.437500
vt 0.187500 0.338107
vt 0.187500 0.375000
vt 0.156250 0.375000
vt 0.156250 0.352225
vt 0.177663 0.330284
vt 0.175253 0.500000
vt 0.169542 0.562500
vt 0.156250 0.562500
vt 0.156250 0.500000
vt 0.156250 0.437500
vt 0.125000 0.562500
vt 0.125000 0.500000
vt 0.125000 0.437500
vt 0.133115 0.375000
vt 0.125000 0.625000
vt 0.093750 0.625000
vt 0.093750 0.562500
vt 0.093750 0.500000
vt 0.093750 0.437500
vt 0.125000 0.382011
vt 0.093750 0.404819
vt 0.062500 0.437500
vt 0.062500 0.422438
vt 0.875965 0.382715
vt 0.875000 0.384594
vt 0.875000 0.382011
vt 0.843750 0.626201
vt 0.857758 0.687500
vt 0.843750 0.687500
vt 0.843913 0.500000
vt 0.843750 0.502392
vt 0.843750 0.500000
vt 0.856408 0.437500
vt 0.843750 0.437500
vt 0.843750 0.352225
vt 0.866885 0.375000
vt 0.843750 0.375000
vt 0.812500 0.437500
vt 0.812500 0.375000
vt 0.812500 0.320204
vt 0.797186 0.303125
vt 0.805081 0.312500
vt 0.790236 0.312500
vt 0.781250 0.322612
vt 0.781250 0.375000
vt 0.812500 0.683155
vt 0.843750 0.691517
vt 0.830176 0.687500
vt 0.862694 0.698772
vt 0.150814 0.625000
vt 0.125000 0.628043
vt 0.173400 0.625901
vt 0.319756 0.750219
vt 0.338917 0.776711
vt 0.864859 0.741797
vt 0.066252 0.651047
vt 0.093750 0.637862
vt 0.156250 0.624468
vt 0.163405 0.625000
vt 0.218750 0.359950
vt 0.528401 0.294968
vt 0.356078 0.294635
vt 0.754574 0.295704
vt 0.243603 0.374886
vt 0.355377 0.625000
vt 0.359285 0.562500
vt 0.350680 0.671195
vt 0.345541 0.666006
vt 0.353701 0.500000
vt 0.375000 0.485902
vt 0.353076 0.497371
vt 0.562500 0.434374
vt 0.570602 0.436021
vt 0.656250 0.428668
vt 0.656250 0.436582
vt 0.647020 0.431654
vt 0.657087 0.437500
vt 0.432999 0.375000
vt 0.411919 0.384137
vt 0.289169 0.389153
vt 0.456774 0.359908
vt 0.437500 0.372722
vt 0.059577 0.437500
vt 0.055066 0.425090
vt 0.071121 0.625000
vt 0.074443 0.562500
vt 0.070775 0.500000
vt 0.062500 0.450720
vt 0.840416 0.562500
vt 0.843553 0.625000
vt 0.586528 0.710146
vt 0.718750 0.387755
vt 0.687500 0.411208
vt 0.437500 0.375000
vt 0.301540 0.741797
vt 0.173685 0.625720
vt 0.173539 0.625000
s 0
f 58/1/1 33/2/1 59/3/1
f 107/4/2 106/5/2 104/6/2 102/7/2 103/8/2 100/9/2 101/10/2 111/11/2 110/12/2 99/13/2 105/14/2 108/15/2 109/16/2 98/17/2
f 79/18/3 76/19/3 1/20/3
f 112/21/4 122/22/4 121/23/4 118/24/4 116/25/4 115/26/4 117/27/4 114/28/4 113/29/4 119/30/4 120/31/4
f 119/30/5 113/29/5 2/32/5 56/33/5
f 55/34/6 56/33/6 2/32/6
f 117/27/7 115/26/7 5/35/7 6/36/7
f 118/24/8 37/37/8 4/38/8 116/25/8
f 39/39/9 38/40/9 7/41/9
f 5/35/10 4/38/10 8/42/10 9/43/10
f 133/44/11 6/36/11 135/45/11
f 67/46/12 66/47/12 10/48/12
f 69/49/13 68/50/13 11/51/13
f 139/52/14 12/53/14 16/54/14 41/55/14 140/56/14
f 71/57/15 70/58/15 13/59/15 14/60/15
f 12/53/16 11/51/16 15/61/16 16/54/16
f 14/60/17 13/59/17 18/62/17 19/63/17
f 15/61/18 14/60/18 19/63/18 20/64/18
f 41/55/19 16/54/19 43/65/19
f 18/62/20 17/66/20 21/67/20 22/68/20
f 19/63/21 18/62/21 22/68/21 23/69/21
f 20/64/22 19/63/22 23/69/22 24/70/22
f 42/71/23 20/64/23 24/70/23 44/72/23
f 44/72/24 24/70/24 25/73/24 45/74/24
f 96/75/25 95/76/25 46/77/25
f 87/78/26 89/79/26 26/80/26
f 90/81/27 88/82/27 27/83/27
f 91/84/28 90/81/28 27/83/28 28/85/28
f 47/86/29 48/87/29 29/88/29
f 29/88/30 28/85/30 30/89/30 31/90/30
f 47/86/31 29/88/31 31/90/31 49/91/31
f 62/92/32 50/93/32 60/94/32
f 57/95/33 32/96/33 33/2/33 58/1/33
f 99/13/34 35/97/34 105/14/34
f 26/80/35 34/98/35 36/99/35
f 89/79/36 94/100/36 34/98/36 26/80/36
f 125/101/37 124/102/37 17/66/37
f 129/103/38 127/104/38 130/105/38 131/106/38 132/107/38 126/108/38 124/102/38 125/101/38 123/109/38 128/110/38
f 4/38/39 37/37/39 39/39/39 7/41/39 8/42/39
f 115/26/40 116/25/40 4/38/40 5/35/40
f 16/54/41 15/61/41 20/64/41 42/71/41 43/65/41
f 138/111/42 10/48/42 12/53/42 139/52/42
f 143/112/43 142/113/43 61/114/43
f 49/91/44 31/90/44 32/96/44 57/95/44 60/94/44 50/93/44
f 11/51/45 68/50/45 71/57/45 14/60/45 15/61/45
f 10/48/46 66/47/46 69/49/46 11/51/46 12/53/46
f 138/111/47 145/115/47 67/46/47 10/48/47
f 8/42/48 7/41/48 64/116/48 65/117/48
f 7/41/49 38/40/49 40/118/49 74/119/49 64/116/49
f 9/43/50 8/42/50 65/117/50 63/120/50
f 134/121/51 9/43/51 63/120/51 136/122/51
f 54/123/52 80/124/52 79/18/52 1/20/52
f 53/125/53 78/126/53 81/127/53
f 98/17/54 109/16/54 75/128/54
f 137/129/55 147/130/55 146/131/55 145/115/55 138/111/55 139/52/55 140/56/55 142/113/55 143/112/55 144/132/55 141/133/55
f 46/77/56 95/76/56 91/84/56 28/85/56 29/88/56 48/87/56
f 45/74/57 25/73/57 86/134/57 97/135/57
f 22/68/58 21/67/58 85/136/58 84/137/58
f 23/69/59 22/68/59 84/137/59 83/138/59
f 24/70/60 23/69/60 83/138/60 82/139/60 25/73/60
f 25/73/61 82/139/61 86/134/61
f 93/140/62 92/141/62 110/12/62 111/11/62
f 121/23/63 122/22/63 76/19/63 79/18/63 80/124/63 81/127/63 78/126/63 75/128/63 109/16/63 108/15/63 77/142/63
f 51/143/64 106/5/64 107/4/64 52/144/64
f 131/106/65 130/105/65 77/142/65 108/15/65 105/14/65 35/97/65 36/99/65 34/98/65 94/100/65
f 33/2/66 104/6/66 106/5/66 51/143/66 59/3/66
f 31/90/67 30/89/67 103/8/67 102/7/67 32/96/67
f 32/96/68 102/7/68 104/6/68 33/2/68
f 27/83/69 88/82/69 93/140/69 111/11/69 101/10/69
f 28/85/70 27/83/70 101/10/70 100/9/70 30/89/70
f 30/89/71 100/9/71 103/8/71
f 87/78/72 26/80/72 36/99/72 35/97/72 99/13/72 110/12/72 92/141/72
f 52/144/73 107/4/73 98/17/73 75/128/73 78/126/73 53/125/73
f 2/32/74 113/29/74 114/28/74 3/145/74
f 54/123/75 1/20/75 112/21/75 120/31/75
f 1/20/76 76/19/76 122/22/76 112/21/76
f 83/138/77 84/137/77 85/136/77 132/107/77 131/146/77 94/100/77 89/79/77 87/78/77 92/141/77 93/140/77 88/82/77 90/81/77 91/84/77 95/76/77 96/75/77 97/135/77 86/134/77 82/139/77
f 73/147/78 129/103/78 128/110/78 72/148/78
f 121/23/79 77/142/79 130/105/79 127/104/79 40/118/79 38/40/79 39/39/79 37/37/79 118/24/79
f 40/118/80 127/104/80 129/103/80 73/147/80 74/119/80
f 21/67/81 126/108/81 132/107/81 85/136/81
f 17/66/82 124/102/82 126/108/82 21/67/82
f 13/59/83 123/109/83 125/101/83 17/66/83 18/62/83
f 70/58/84 72/148/84 128/110/84 123/109/84 13/59/84
f 6/36/85 5/35/85 9/43/85 134/121/85 135/45/85
f 141/133/86 3/145/86 137/129/86
f 134/121/87 136/122/87 146/131/87 147/130/87 133/44/87 135/45/87
f 74/119/88 73/147/88 72/148/88 70/58/88 71/57/88 68/50/88 69/49/88 66/47/88 67/46/88 145/115/88 146/131/88 136/122/88 63/120/88 65/117/88 64/116/88
f 61/114/89 62/92/89 60/94/89 57/95/89 58/1/89 59/3/89 51/143/89 52/144/89 53/125/89 81/127/89 80/124/89 54/123/89 120/31/89 119/30/89 56/33/89 55/34/89 144/132/89 143/112/89
f 55/34/90 2/32/90 3/145/90 141/133/90 144/132/90
f 47/86/91 49/91/91 50/93/91 62/92/91 61/114/91 142/113/91 140/56/91 41/55/91 43/65/91 42/71/91 44/72/91 45/74/91 97/135/91 96/75/91 46/77/91 48/87/91
f 3/145/92 114/28/92 117/27/92 6/36/92 133/44/92 147/130/92 137/129/92
