# Blender 5.1.0
# www.blender.org
mtllib tablicaz1.mtl
o Cube
v 0.023634 1.320796 -0.063580
v 0.024311 0.006410 -0.065400
v 0.024311 1.339347 0.065400
v 0.025969 -0.039049 0.069861
v -0.024311 1.339347 -0.065400
v -0.025969 -0.039049 -0.069861
v -0.025969 1.384806 0.069861
v -0.026646 -0.057600 0.071681
vn 0.5315 0.8237 -0.1976
vn 0.0615 0.0022 0.9981
vn -1.0000 0.0008 -0.0085
vn 0.5218 -0.8307 -0.1940
vn 1.0000 0.0009 -0.0087
vn 0.0632 0.0023 -0.9980
vt 0.625000 0.500000
vt 0.875000 0.500000
vt 0.875000 0.750000
vt 0.625000 0.750000
vt 0.375000 0.750000
vt 0.625000 1.000000
vt 0.375000 1.000000
vt 0.375000 0.000000
vt 0.625000 0.000000
vt 0.625000 0.250000
vt 0.375000 0.250000
vt 0.125000 0.500000
vt 0.375000 0.500000
vt 0.125000 0.750000
s 0
usemtl Material
f 1/1/1 5/2/1 7/3/1 3/4/1
f 4/5/2 3/4/2 7/6/2 8/7/2
f 8/8/3 7/9/3 5/10/3 6/11/3
f 6/12/4 2/13/4 4/5/4 8/14/4
f 2/13/5 1/1/5 3/4/5 4/5/5
f 6/11/6 5/10/6 1/1/6 2/13/6
o Cube.003
v 0.059707 1.025657 -0.558095
v 0.073154 0.786225 -0.513716
v -0.057068 1.149132 0.478388
v -0.038797 0.915758 0.482699
v 0.111353 1.028032 -0.538780
v 0.119614 0.801487 -0.476624
v -0.003037 1.140998 0.459373
v 0.010355 0.921557 0.476906
v -0.062993 1.041737 0.634143
v -0.068954 1.057074 0.665552
v -0.016267 1.055108 0.637704
v -0.016263 1.045893 0.648153
vn -0.9918 -0.0770 -0.1020
vn -0.9916 -0.0860 -0.0970
vn 0.9921 0.0671 0.1057
vn 0.5139 -0.1684 -0.8412
vn 0.0544 0.9925 -0.1092
vn 0.1677 -0.9753 0.1439
vn 0.1209 -0.6274 0.7693
vn 0.9919 0.0710 0.1053
vn 0.2727 0.8575 0.4362
vn 0.0290 -0.7876 0.6155
vt 0.375000 0.000000
vt 0.625000 0.000000
vt 0.625000 0.250000
vt 0.375000 0.250000
vt 0.375000 0.500000
vt 0.625000 0.500000
vt 0.625000 0.750000
vt 0.375000 0.750000
vt 0.625000 1.000000
vt 0.375000 1.000000
vt 0.125000 0.500000
vt 0.125000 0.750000
vt 0.875000 0.500000
vt 0.875000 0.750000
s 0
usemtl Material
f 9/15/7 10/16/7 12/17/7 11/18/7
f 11/18/8 12/17/8 17/17/8 18/18/8
f 15/19/9 16/20/9 14/21/9 13/22/9
f 13/22/10 14/21/10 10/23/10 9/24/10
f 11/25/11 15/19/11 13/22/11 9/26/11
f 16/20/12 12/27/12 10/28/12 14/21/12
f 18/18/13 17/17/13 20/20/13 19/19/13
f 16/20/14 15/19/14 19/19/14 20/20/14
f 15/19/15 11/25/15 18/25/15 19/19/15
f 12/27/16 16/20/16 20/20/16 17/27/16
o Cylinder
v 0.055690 1.059137 0.043174
v 0.040565 1.058080 0.043188
v 0.056142 1.052646 0.040979
v 0.041017 1.051588 0.040993
v 0.056426 1.048511 0.034897
v 0.041300 1.047453 0.034911
v 0.056433 1.048312 0.027251
v 0.041307 1.047255 0.027265
v 0.056160 1.052125 0.020962
v 0.041035 1.051068 0.020976
v 0.055713 1.058494 0.018431
v 0.040587 1.057436 0.018445
v 0.055261 1.064985 0.020627
v 0.040135 1.063928 0.020640
v 0.054977 1.069120 0.026709
v 0.039852 1.068062 0.026722
v 0.054970 1.069319 0.034355
v 0.039845 1.068261 0.034368
v 0.055243 1.065506 0.040644
v 0.040117 1.064448 0.040658
vn 0.0232 -0.3188 0.9475
vn 0.0581 -0.8243 0.5631
vn 0.0697 -0.9972 0.0260
vn 0.0591 -0.8525 -0.5194
vn 0.0249 -0.3676 -0.9296
vn -0.0232 0.3188 -0.9475
vn -0.0581 0.8243 -0.5631
vn -0.0697 0.9972 -0.0260
vn -0.9976 -0.0697 0.0009
vn -0.0591 0.8525 0.5194
vn -0.0249 0.3676 0.9296
vn 0.9976 0.0697 -0.0009
vt 1.000000 0.500000
vt 1.000000 1.000000
vt 0.900000 1.000000
vt 0.900000 0.500000
vt 0.800000 1.000000
vt 0.800000 0.500000
vt 0.700000 1.000000
vt 0.700000 0.500000
vt 0.600000 1.000000
vt 0.600000 0.500000
vt 0.500000 1.000000
vt 0.500000 0.500000
vt 0.400000 1.000000
vt 0.400000 0.500000
vt 0.300000 1.000000
vt 0.300000 0.500000
vt 0.200000 1.000000
vt 0.200000 0.500000
vt 0.391068 0.444164
vt 0.250000 0.490000
vt 0.108932 0.444164
vt 0.021746 0.324164
vt 0.021746 0.175836
vt 0.108932 0.055836
vt 0.250000 0.010000
vt 0.391068 0.055836
vt 0.478254 0.175836
vt 0.478254 0.324164
vt 0.100000 1.000000
vt 0.100000 0.500000
vt -0.000000 1.000000
vt -0.000000 0.500000
vt 0.750000 0.490000
vt 0.891068 0.444164
vt 0.978254 0.324164
vt 0.978254 0.175836
vt 0.891068 0.055836
vt 0.750000 0.010000
vt 0.608932 0.055836
vt 0.521746 0.175836
vt 0.521746 0.324164
vt 0.608932 0.444164
s 0
usemtl Material.001
f 21/29/17 22/30/17 24/31/17 23/32/17
f 23/32/18 24/31/18 26/33/18 25/34/18
f 25/34/19 26/33/19 28/35/19 27/36/19
f 27/36/20 28/35/20 30/37/20 29/38/20
f 29/38/21 30/37/21 32/39/21 31/40/21
f 31/40/22 32/39/22 34/41/22 33/42/22
f 33/42/23 34/41/23 36/43/23 35/44/23
f 35/44/24 36/43/24 38/45/24 37/46/24
f 24/47/25 22/48/25 40/49/25 38/50/25 36/51/25 34/52/25 32/53/25 30/54/25 28/55/25 26/56/25
f 37/46/26 38/45/26 40/57/26 39/58/26
f 39/58/27 40/57/27 22/59/27 21/60/27
f 21/61/28 23/62/28 25/63/28 27/64/28 29/65/28 31/66/28 33/67/28 35/68/28 37/69/28 39/70/28
o Cylinder.001
v 0.067221 0.894290 0.049204
v 0.052096 0.893232 0.049218
v 0.067673 0.887798 0.047009
v 0.052547 0.886741 0.047023
v 0.067956 0.883664 0.040927
v 0.052831 0.882606 0.040941
v 0.067963 0.883465 0.033281
v 0.052838 0.882407 0.033295
v 0.067691 0.887278 0.026992
v 0.052566 0.886220 0.027005
v 0.067244 0.893646 0.024461
v 0.052118 0.892589 0.024475
v 0.066792 0.900138 0.026656
v 0.051666 0.899080 0.026670
v 0.066508 0.904273 0.032739
v 0.051383 0.903215 0.032752
v 0.066501 0.904472 0.040385
v 0.051376 0.903414 0.040398
v 0.066773 0.900658 0.046674
v 0.051648 0.899601 0.046688
vn 0.0232 -0.3188 0.9475
vn 0.0581 -0.8243 0.5631
vn 0.0697 -0.9972 0.0260
vn 0.0591 -0.8525 -0.5194
vn 0.0249 -0.3676 -0.9296
vn -0.0232 0.3188 -0.9475
vn -0.0581 0.8243 -0.5631
vn -0.0697 0.9972 -0.0260
vn -0.9976 -0.0697 0.0009
vn -0.0591 0.8525 0.5194
vn -0.0249 0.3676 0.9296
vn 0.9976 0.0697 -0.0009
vt 1.000000 0.500000
vt 1.000000 1.000000
vt 0.900000 1.000000
vt 0.900000 0.500000
vt 0.800000 1.000000
vt 0.800000 0.500000
vt 0.700000 1.000000
vt 0.700000 0.500000
vt 0.600000 1.000000
vt 0.600000 0.500000
vt 0.500000 1.000000
vt 0.500000 0.500000
vt 0.400000 1.000000
vt 0.400000 0.500000
vt 0.300000 1.000000
vt 0.300000 0.500000
vt 0.200000 1.000000
vt 0.200000 0.500000
vt 0.391068 0.444164
vt 0.250000 0.490000
vt 0.108932 0.444164
vt 0.021746 0.324164
vt 0.021746 0.175836
vt 0.108932 0.055836
vt 0.250000 0.010000
vt 0.391068 0.055836
vt 0.478254 0.175836
vt 0.478254 0.324164
vt 0.100000 1.000000
vt 0.100000 0.500000
vt -0.000000 1.000000
vt -0.000000 0.500000
vt 0.750000 0.490000
vt 0.891068 0.444164
vt 0.978254 0.324164
vt 0.978254 0.175836
vt 0.891068 0.055836
vt 0.750000 0.010000
vt 0.608932 0.055836
vt 0.521746 0.175836
vt 0.521746 0.324164
vt 0.608932 0.444164
s 0
usemtl Material.001
f 41/71/29 42/72/29 44/73/29 43/74/29
f 43/74/30 44/73/30 46/75/30 45/76/30
f 45/76/31 46/75/31 48/77/31 47/78/31
f 47/78/32 48/77/32 50/79/32 49/80/32
f 49/80/33 50/79/33 52/81/33 51/82/33
f 51/82/34 52/81/34 54/83/34 53/84/34
f 53/84/35 54/83/35 56/85/35 55/86/35
f 55/86/36 56/85/36 58/87/36 57/88/36
f 44/89/37 42/90/37 60/91/37 58/92/37 56/93/37 54/94/37 52/95/37 50/96/37 48/97/37 46/98/37
f 57/88/38 58/87/38 60/99/38 59/100/38
f 59/100/39 60/99/39 42/101/39 41/102/39
f 41/103/40 43/104/40 45/105/40 47/106/40 49/107/40 51/108/40 53/109/40 55/110/40 57/111/40 59/112/40
