# Blender 5.1.0
# www.blender.org
mtllib tablicaz2.mtl
o Cylinder.002
v 0.061602 1.108885 -0.009451
v 0.046440 1.108885 -0.009451
v 0.061602 1.115332 -0.007087
v 0.046440 1.115332 -0.007087
v 0.061602 1.119317 -0.000899
v 0.046440 1.119317 -0.000899
v 0.061602 1.119317 0.006750
v 0.046440 1.119317 0.006750
v 0.061602 1.115332 0.012937
v 0.046440 1.115332 0.012937
v 0.061602 1.108885 0.015301
v 0.046440 1.108885 0.015301
v 0.061602 1.102437 0.012937
v 0.046440 1.102437 0.012937
v 0.061602 1.098452 0.006750
v 0.046440 1.098452 0.006750
v 0.061602 1.098452 -0.000899
v 0.046440 1.098452 -0.000899
v 0.061602 1.102437 -0.007087
v 0.046440 1.102437 -0.007087
v 0.062122 0.725330 0.562248
v 0.059642 0.956819 0.538698
v -0.042833 0.622829 -0.434275
v -0.045313 0.854318 -0.457824
v 0.112879 0.725330 0.556902
v 0.110399 0.956819 0.533353
v 0.007924 0.622829 -0.439621
v 0.005444 0.854318 -0.463170
v -0.064000 0.725790 -0.635253
v -0.063859 0.712573 -0.633909
v -0.013102 0.712573 -0.639254
v -0.013243 0.725790 -0.640599
v 0.025140 1.362077 -0.067630
v 0.025140 -0.016320 -0.067630
v 0.025140 1.362077 0.067630
v 0.025140 -0.016320 0.067630
v -0.025140 1.362077 -0.067630
v -0.025140 -0.016320 -0.067630
v -0.025140 1.362077 0.067630
v -0.025140 -0.016320 0.067630
v 0.067337 1.235550 -0.505051
v 0.063969 1.004719 -0.475837
v -0.047104 1.362843 0.487561
v -0.050473 1.132011 0.516775
v 0.118039 1.235550 -0.499205
v 0.114671 1.004719 -0.469992
v 0.003597 1.362843 0.493407
v 0.000229 1.132011 0.522620
v -0.070536 1.264920 0.690794
v -0.070343 1.278099 0.689126
v -0.019642 1.278099 0.694971
v -0.019834 1.264920 0.696639
v 0.061602 0.703431 -0.008982
v 0.046440 0.703431 -0.008982
v 0.061602 0.709879 -0.006619
v 0.046440 0.709879 -0.006619
v 0.061602 0.713864 -0.000431
v 0.046440 0.713864 -0.000431
v 0.061602 0.713864 0.007218
v 0.046440 0.713864 0.007218
v 0.061602 0.709879 0.013405
v 0.046440 0.709879 0.013405
v 0.061602 0.703431 0.015769
v 0.046440 0.703431 0.015769
v 0.061602 0.696984 0.013405
v 0.046440 0.696984 0.013405
v 0.061602 0.692999 0.007218
v 0.046440 0.692999 0.007218
v 0.061602 0.692999 -0.000431
v 0.046440 0.692999 -0.000431
v 0.061602 0.696984 -0.006619
v 0.046440 0.696984 -0.006619
v 0.061602 0.868782 -0.010714
v 0.046440 0.868782 -0.010714
v 0.061602 0.875230 -0.008351
v 0.046440 0.875230 -0.008351
v 0.061602 0.879215 -0.002163
v 0.046440 0.879215 -0.002163
v 0.061602 0.879215 0.005486
v 0.046440 0.879215 0.005486
v 0.061602 0.875230 0.011674
v 0.046440 0.875230 0.011674
v 0.061602 0.868782 0.014037
v 0.046440 0.868782 0.014037
v 0.061602 0.862335 0.011674
v 0.046440 0.862335 0.011674
v 0.061602 0.858350 0.005486
v 0.046440 0.858350 0.005486
v 0.061602 0.858350 -0.002163
v 0.046440 0.858350 -0.002163
v 0.061602 0.862335 -0.008351
v 0.046440 0.862335 -0.008351
v 0.061602 1.273165 -0.005659
v 0.046440 1.273165 -0.005659
v 0.061602 1.279613 -0.003296
v 0.046440 1.279613 -0.003296
v 0.061602 1.283598 0.002892
v 0.046440 1.283598 0.002892
v 0.061602 1.283598 0.010541
v 0.046440 1.283598 0.010541
v 0.061602 1.279613 0.016728
v 0.046440 1.279613 0.016728
v 0.061602 1.273165 0.019092
v 0.046440 1.273165 0.019092
v 0.061602 1.266717 0.016728
v 0.046440 1.266717 0.016728
v 0.061602 1.262732 0.010541
v 0.046440 1.262732 0.010541
v 0.061602 1.262732 0.002892
v 0.046440 1.262732 0.002892
v 0.061602 1.266717 -0.003296
v 0.046440 1.266717 -0.003296
vn -0.0000 0.3442 -0.9389
vn -0.0000 0.8407 -0.5414
vn -0.0000 1.0000 -0.0000
vn -0.0000 0.8407 0.5414
vn -0.0000 0.3442 0.9389
vn -0.0000 -0.3442 0.9389
vn -0.0000 -0.8407 0.5414
vn -0.0000 -1.0000 -0.0000
vn -1.0000 -0.0000 -0.0000
vn -0.0000 -0.8407 -0.5414
vn -0.0000 -0.3442 -0.9389
vn 1.0000 -0.0000 -0.0000
vn -0.9945 -0.0000 0.1047
vn 0.9945 -0.0000 -0.1047
vn 0.1042 0.1018 0.9893
vn 0.0107 -0.9948 0.1012
vn -0.0107 0.9948 -0.1012
vn -0.1042 -0.1018 -0.9893
vn -0.0428 -0.9129 -0.4059
vn -0.0612 0.8114 -0.5813
vn -0.0000 -0.0000 1.0000
vn -0.0000 -0.0000 -1.0000
vn -0.9934 -0.0000 -0.1145
vn 0.9934 -0.0000 0.1145
vn 0.1136 -0.1264 -0.9855
vn 0.0145 0.9920 -0.1255
vn -0.0145 -0.9920 0.1255
vn -0.1136 0.1264 0.9855
vn -0.0441 0.9228 0.3829
vn -0.0692 -0.7966 0.6005
vt 1.000000 0.500000
vt 1.000000 1.000000
vt 0.900000 1.000000
vt 0.900000 0.500000
vt 0.800000 1.000000
vt 0.800000 0.500000
vt 0.700000 1.000000
vt 0.700000 0.500000
vt 0.600000 1.000000
vt 0.600000 0.500000
vt 0.500000 1.000000
vt 0.500000 0.500000
vt 0.400000 1.000000
vt 0.400000 0.500000
vt 0.300000 1.000000
vt 0.300000 0.500000
vt 0.200000 1.000000
vt 0.200000 0.500000
vt 0.391068 0.444164
vt 0.250000 0.490000
vt 0.108932 0.444164
vt 0.021746 0.324164
vt 0.021746 0.175836
vt 0.108932 0.055836
vt 0.250000 0.010000
vt 0.391068 0.055836
vt 0.478254 0.175836
vt 0.478254 0.324164
vt 0.100000 1.000000
vt 0.100000 0.500000
vt -0.000000 1.000000
vt -0.000000 0.500000
vt 0.750000 0.490000
vt 0.891068 0.444164
vt 0.978254 0.324164
vt 0.978254 0.175836
vt 0.891068 0.055836
vt 0.750000 0.010000
vt 0.608932 0.055836
vt 0.521746 0.175836
vt 0.521746 0.324164
vt 0.608932 0.444164
vt 0.375000 0.000000
vt 0.625000 0.000000
vt 0.625000 0.250000
vt 0.375000 0.250000
vt 0.375000 0.500000
vt 0.625000 0.500000
vt 0.625000 0.750000
vt 0.375000 0.750000
vt 0.625000 1.000000
vt 0.375000 1.000000
vt 0.125000 0.500000
vt 0.125000 0.750000
vt 0.875000 0.500000
vt 0.875000 0.750000
s 0
usemtl Material.001
f 1/1/1 2/2/1 4/3/1 3/4/1
f 3/4/2 4/3/2 6/5/2 5/6/2
f 5/6/3 6/5/3 8/7/3 7/8/3
f 7/8/4 8/7/4 10/9/4 9/10/4
f 9/10/5 10/9/5 12/11/5 11/12/5
f 11/12/6 12/11/6 14/13/6 13/14/6
f 13/14/7 14/13/7 16/15/7 15/16/7
f 15/16/8 16/15/8 18/17/8 17/18/8
f 4/19/9 2/20/9 20/21/9 18/22/9 16/23/9 14/24/9 12/25/9 10/26/9 8/27/9 6/28/9
f 17/18/10 18/17/10 20/29/10 19/30/10
f 19/30/11 20/29/11 2/31/11 1/32/11
f 1/33/12 3/34/12 5/35/12 7/36/12 9/37/12 11/38/12 13/39/12 15/40/12 17/41/12 19/42/12
f 53/1/1 54/2/1 56/3/1 55/4/1
f 55/4/2 56/3/2 58/5/2 57/6/2
f 57/6/3 58/5/3 60/7/3 59/8/3
f 59/8/4 60/7/4 62/9/4 61/10/4
f 61/10/5 62/9/5 64/11/5 63/12/5
f 63/12/6 64/11/6 66/13/6 65/14/6
f 65/14/7 66/13/7 68/15/7 67/16/7
f 67/16/8 68/15/8 70/17/8 69/18/8
f 56/19/9 54/20/9 72/21/9 70/22/9 68/23/9 66/24/9 64/25/9 62/26/9 60/27/9 58/28/9
f 69/18/10 70/17/10 72/29/10 71/30/10
f 71/30/11 72/29/11 54/31/11 53/32/11
f 53/33/12 55/34/12 57/35/12 59/36/12 61/37/12 63/38/12 65/39/12 67/40/12 69/41/12 71/42/12
f 73/1/1 74/2/1 76/3/1 75/4/1
f 75/4/2 76/3/2 78/5/2 77/6/2
f 77/6/3 78/5/3 80/7/3 79/8/3
f 79/8/4 80/7/4 82/9/4 81/10/4
f 81/10/5 82/9/5 84/11/5 83/12/5
f 83/12/6 84/11/6 86/13/6 85/14/6
f 85/14/7 86/13/7 88/15/7 87/16/7
f 87/16/8 88/15/8 90/17/8 89/18/8
f 76/19/9 74/20/9 92/21/9 90/22/9 88/23/9 86/24/9 84/25/9 82/26/9 80/27/9 78/28/9
f 89/18/10 90/17/10 92/29/10 91/30/10
f 91/30/11 92/29/11 74/31/11 73/32/11
f 73/33/12 75/34/12 77/35/12 79/36/12 81/37/12 83/38/12 85/39/12 87/40/12 89/41/12 91/42/12
f 93/1/1 94/2/1 96/3/1 95/4/1
f 95/4/2 96/3/2 98/5/2 97/6/2
f 97/6/3 98/5/3 100/7/3 99/8/3
f 99/8/4 100/7/4 102/9/4 101/10/4
f 101/10/5 102/9/5 104/11/5 103/12/5
f 103/12/6 104/11/6 106/13/6 105/14/6
f 105/14/7 106/13/7 108/15/7 107/16/7
f 107/16/8 108/15/8 110/17/8 109/18/8
f 96/19/9 94/20/9 112/21/9 110/22/9 108/23/9 106/24/9 104/25/9 102/26/9 100/27/9 98/28/9
f 109/18/10 110/17/10 112/29/10 111/30/10
f 111/30/11 112/29/11 94/31/11 93/32/11
f 93/33/12 95/34/12 97/35/12 99/36/12 101/37/12 103/38/12 105/39/12 107/40/12 109/41/12 111/42/12
usemtl Material
f 21/43/13 22/44/13 24/45/13 23/46/13
f 23/46/13 24/45/13 29/45/13 30/46/13
f 27/47/14 28/48/14 26/49/14 25/50/14
f 25/50/15 26/49/15 22/51/15 21/52/15
f 23/53/16 27/47/16 25/50/16 21/54/16
f 28/48/17 24/55/17 22/56/17 26/49/17
f 30/46/18 29/45/18 32/48/18 31/47/18
f 28/48/14 27/47/14 31/47/14 32/48/14
f 27/47/19 23/53/19 30/53/19 31/47/19
f 24/55/20 28/48/20 32/48/20 29/55/20
f 33/48/3 37/55/3 39/56/3 35/49/3
f 36/50/21 35/49/21 39/51/21 40/52/21
f 40/43/9 39/44/9 37/45/9 38/46/9
f 38/53/8 34/47/8 36/50/8 40/54/8
f 34/47/12 33/48/12 35/49/12 36/50/12
f 38/46/22 37/45/22 33/48/22 34/47/22
f 41/43/23 42/44/23 44/45/23 43/46/23
f 43/46/23 44/45/23 49/45/23 50/46/23
f 47/47/24 48/48/24 46/49/24 45/50/24
f 45/50/25 46/49/25 42/51/25 41/52/25
f 43/53/26 47/47/26 45/50/26 41/54/26
f 48/48/27 44/55/27 42/56/27 46/49/27
f 50/46/28 49/45/28 52/48/28 51/47/28
f 48/48/24 47/47/24 51/47/24 52/48/24
f 47/47/29 43/53/29 50/53/29 51/47/29
f 44/55/30 48/48/30 52/48/30 49/55/30
