# Blender 5.1.0
# www.blender.org
mtllib tablica.mtl
o Cube
v 0.111106 -1.604156 -2.518763
v -0.072186 -1.748406 -2.745257
v 0.111106 -1.604156 2.518763
v -0.111106 -1.748406 2.745257
v 0.111106 1.604156 -2.518763
v -0.072186 1.748406 -2.745257
v 0.111106 1.604156 2.518763
v -0.072186 1.748406 2.745257
v 0.111106 -1.748406 2.745257
v 0.111106 1.748406 2.745257
v 0.111106 -1.748406 -2.745257
v 0.111106 1.748406 -2.745257
v 0.050301 -1.604156 2.518763
v 0.050300 1.604156 2.518763
v 0.050301 -1.604156 -2.518763
v 0.050300 1.604156 -2.518763
v -0.111106 1.748406 -2.745257
v -0.111106 1.748406 2.745257
v -0.111106 -1.748406 -2.745257
v 0.072186 -1.748406 2.745257
v 0.072186 1.748406 2.745257
v 0.072186 -1.748406 -2.745257
v -0.072186 -1.748406 2.745257
v 0.072186 1.748406 -2.745257
v -0.072186 -1.748406 2.782142
v 0.072186 -1.748406 2.782142
v 0.072186 1.748406 2.782142
v -0.072186 1.748406 2.782142
v -0.072186 1.771897 2.745257
v 0.072186 1.771897 2.745257
v 0.072186 1.771897 -2.745257
v -0.072186 1.771897 -2.745257
v -0.072186 -1.771897 -2.745257
v 0.072186 -1.771897 -2.745257
v 0.072186 -1.771897 2.745257
v -0.072186 -1.771897 2.745257
v -0.072186 1.748406 -2.782142
v 0.072186 1.748406 -2.782142
v 0.072186 -1.748406 -2.782142
v -0.072186 -1.748406 -2.782142
vn -0.0000 -1.0000 -0.0000
vn -1.0000 -0.0000 -0.0000
vn 1.0000 -0.0000 -0.0000
vn -0.0000 -0.0000 -1.0000
vn -0.0000 -0.0000 1.0000
vn -0.0000 1.0000 -0.0000
vt 0.864687 0.510313
vt 0.864687 0.739687
vt 0.125000 0.500000
vt 0.375000 0.500000
vt 0.375000 0.750000
vt 0.125000 0.750000
vt 0.635313 0.739687
vt 0.875000 0.750000
vt 0.625000 0.750000
vt 0.635313 0.510313
vt 0.625000 0.500000
vt 0.875000 0.500000
vt 0.418786 0.000000
vt 0.418786 0.250000
vt 0.375000 0.250000
vt 0.375000 0.000000
vt 0.418786 0.500000
vt 0.581214 1.000000
vt 0.581214 0.750000
vt 0.625000 1.000000
vt 0.581214 0.500000
vt 0.418786 0.750000
vt 0.418786 1.000000
vt 0.375000 1.000000
vt 0.581214 0.250000
vt 0.581214 0.000000
vt 0.625000 0.000000
vt 0.625000 0.250000
s 0
usemtl Material
f 5/1/1 7/2/1 14/2/1 16/1/1
f 17/3/2 19/4/2 4/5/2 18/6/2
f 3/7/3 7/2/3 10/8/3 9/9/3
f 1/10/3 3/7/3 9/9/3 11/11/3
f 7/2/3 5/1/3 12/12/3 10/8/3
f 5/1/3 1/10/3 11/11/3 12/12/3
f 7/2/4 3/7/4 13/7/4 14/2/4
f 1/10/5 5/1/5 16/1/5 15/10/5
f 3/7/6 1/10/6 15/10/6 13/7/6
f 8/13/6 6/14/6 17/15/6 18/16/6
f 6/14/4 2/17/4 19/4/4 17/15/4
f 21/18/5 20/19/5 9/9/5 10/20/5
f 20/19/1 22/21/1 11/11/1 9/9/1
f 23/22/5 8/23/5 18/24/5 4/5/5
f 24/25/6 21/26/6 10/27/6 12/28/6
f 22/21/4 24/25/4 12/28/4 11/11/4
f 2/17/1 23/22/1 4/5/1 19/4/1
f 25/22/5 26/19/5 27/18/5 28/23/5
f 20/19/1 26/19/1 25/22/1 23/22/1
f 21/18/3 27/18/3 26/19/3 20/19/3
f 8/23/6 28/23/6 27/18/6 21/18/6
f 23/22/2 25/22/2 28/23/2 8/23/2
f 29/13/6 30/26/6 31/25/6 32/14/6
f 21/26/5 30/26/5 29/13/5 8/13/5
f 24/25/3 31/25/3 30/26/3 21/26/3
f 6/14/4 32/14/4 31/25/4 24/25/4
f 8/13/2 29/13/2 32/14/2 6/14/2
f 33/17/1 34/21/1 35/19/1 36/22/1
f 22/21/4 34/21/4 33/17/4 2/17/4
f 20/19/3 35/19/3 34/21/3 22/21/3
f 23/22/5 36/22/5 35/19/5 20/19/5
f 2/17/2 33/17/2 36/22/2 23/22/2
f 37/14/4 38/25/4 39/21/4 40/17/4
f 24/25/6 38/25/6 37/14/6 6/14/6
f 22/21/3 39/21/3 38/25/3 24/25/3
f 2/17/1 40/17/1 39/21/1 22/21/1
f 6/14/2 37/14/2 40/17/2 2/17/2
usemtl Material.001
f 15/10/3 16/1/3 14/2/3 13/7/3
